<?xml version="1.0" encoding="UTF-8"?>
<svg xmlns="http://www.w3.org/2000/svg" xmlns:xlink="http://www.w3.org/1999/xlink" width="150px" height="150px" viewBox="0 0 150 150" version="1.1">
<defs>
<linearGradient id="linear0" gradientUnits="userSpaceOnUse" x1="-23.235" y1="97.431" x2="-23.235" y2="61.386" gradientTransform="matrix(4.450477,0,0,4.448075,213.449868,-336.033695)">
<stop offset="0" style="stop-color:rgb(10.196078%,10.196078%,10.196078%);stop-opacity:0.101961;"/>
<stop offset="0.123" style="stop-color:rgb(12.941176%,12.941176%,12.941176%);stop-opacity:0.152941;"/>
<stop offset="0.308" style="stop-color:rgb(20.784314%,20.784314%,20.784314%);stop-opacity:0.227451;"/>
<stop offset="0.532" style="stop-color:rgb(34.117647%,34.117647%,34.117647%);stop-opacity:0.317647;"/>
<stop offset="0.783" style="stop-color:rgb(52.156863%,52.156863%,52.156863%);stop-opacity:0.419608;"/>
<stop offset="1" style="stop-color:rgb(70.196078%,70.196078%,70.196078%);stop-opacity:0.509804;"/>
</linearGradient>
</defs>
<g id="surface1">
<path style=" stroke:none;fill-rule:nonzero;fill:rgb(100%,100%,100%);fill-opacity:1;" d="M 149.042969 91.980469 C 149.042969 93.109375 148.59375 94.195312 147.796875 94.992188 C 146.996094 95.792969 145.910156 96.238281 144.78125 96.238281 L 5.257812 96.238281 C 2.902344 96.242188 0.992188 94.335938 0.988281 91.980469 L 0.988281 58.023438 C 0.992188 55.671875 2.902344 53.761719 5.257812 53.761719 L 144.78125 53.761719 C 147.136719 53.761719 149.042969 55.671875 149.042969 58.023438 Z M 149.042969 91.980469 "/>
<path style=" stroke:none;fill-rule:nonzero;fill:rgb(65.098039%,65.098039%,65.098039%);fill-opacity:1;" d="M 144.78125 97.230469 L 5.257812 97.230469 C 2.359375 97.226562 0.00390625 94.878906 0 91.980469 L 0 58.027344 C 0.00390625 55.125 2.355469 52.773438 5.257812 52.773438 L 144.78125 52.773438 C 147.679688 52.777344 150.035156 55.125 150.039062 58.027344 L 150.039062 91.980469 C 150.039062 94.875 147.679688 97.230469 144.78125 97.230469 Z M 144.78125 97.230469 "/>
<path style=" stroke:none;fill-rule:nonzero;fill:rgb(0%,0%,0%);fill-opacity:1;" d="M 149.042969 91.980469 C 149.042969 93.109375 148.59375 94.195312 147.796875 94.992188 C 146.996094 95.792969 145.910156 96.238281 144.78125 96.238281 L 5.257812 96.238281 C 2.902344 96.242188 0.992188 94.335938 0.988281 91.980469 L 0.988281 58.023438 C 0.992188 55.671875 2.902344 53.761719 5.257812 53.761719 L 144.78125 53.761719 C 147.136719 53.761719 149.042969 55.671875 149.042969 58.023438 Z M 149.042969 91.980469 "/>
<path style=" stroke:none;fill-rule:nonzero;fill:rgb(100%,100%,100%);fill-opacity:1;" d="M 33.503906 74.765625 C 33.46875 71.183594 36.4375 69.441406 36.574219 69.359375 C 34.890625 66.910156 32.289062 66.574219 31.375 66.546875 C 29.1875 66.320312 27.0625 67.855469 25.949219 67.855469 C 24.8125 67.855469 23.097656 66.570312 21.25 66.609375 C 18.867188 66.644531 16.640625 68.023438 15.421875 70.160156 C 12.902344 74.523438 14.78125 80.933594 17.195312 84.457031 C 18.402344 86.183594 19.8125 88.113281 21.660156 88.042969 C 23.46875 87.96875 24.144531 86.894531 26.324219 86.894531 C 28.484375 86.894531 29.117188 88.042969 31 88 C 32.941406 87.96875 34.160156 86.265625 35.328125 84.523438 C 36.722656 82.546875 37.285156 80.597656 37.304688 80.496094 C 37.261719 80.480469 33.539062 79.058594 33.503906 74.765625 Z M 29.945312 64.230469 C 30.917969 63.015625 31.582031 61.363281 31.394531 59.683594 C 29.988281 59.746094 28.230469 60.65625 27.21875 61.84375 C 26.320312 62.890625 25.519531 64.609375 25.726562 66.222656 C 27.308594 66.339844 28.929688 65.425781 29.945312 64.230469 Z M 29.945312 64.230469 "/>
<path style=" stroke:none;fill-rule:nonzero;fill:url(#linear0);" d="M 144.78125 52.773438 L 70.046875 52.773438 L 99.320312 97.230469 L 144.78125 97.230469 C 147.683594 97.226562 150.035156 94.878906 150.039062 91.976562 L 150.039062 58.027344 C 150.035156 55.125 147.683594 52.777344 144.78125 52.773438 Z M 144.78125 52.773438 "/>
<path style=" stroke:none;fill-rule:nonzero;fill:rgb(100%,100%,100%);fill-opacity:1;" d="M 59.675781 87.796875 L 57.152344 87.796875 L 55.765625 83.449219 L 50.957031 83.449219 L 49.640625 87.796875 L 47.183594 87.796875 L 51.949219 73 L 54.890625 73 Z M 55.351562 81.625 L 54.097656 77.765625 C 53.96875 77.367188 53.71875 76.441406 53.351562 74.976562 L 53.308594 74.976562 C 53.160156 75.605469 52.925781 76.535156 52.605469 77.765625 L 51.375 81.625 Z M 71.90625 82.332031 C 71.90625 84.144531 71.414062 85.578125 70.425781 86.632812 C 69.542969 87.570312 68.445312 88.035156 67.136719 88.035156 C 65.722656 88.035156 64.707031 87.535156 64.089844 86.523438 L 64.089844 92.121094 L 61.71875 92.121094 L 61.71875 80.632812 C 61.71875 79.496094 61.691406 78.328125 61.632812 77.128906 L 63.71875 77.128906 L 63.847656 78.820312 L 63.894531 78.820312 C 64.683594 77.542969 65.882812 76.90625 67.496094 76.90625 C 68.753906 76.90625 69.804688 77.40625 70.644531 78.398438 C 71.484375 79.398438 71.90625 80.707031 71.90625 82.332031 Z M 69.492188 82.417969 C 69.492188 81.378906 69.257812 80.523438 68.789062 79.847656 C 68.273438 79.148438 67.585938 78.796875 66.722656 78.796875 C 66.140625 78.796875 65.605469 78.992188 65.132812 79.375 C 64.65625 79.765625 64.34375 80.273438 64.199219 80.902344 C 64.132812 81.136719 64.097656 81.378906 64.089844 81.625 L 64.089844 83.40625 C 64.089844 84.179688 64.328125 84.835938 64.804688 85.371094 C 65.28125 85.902344 65.898438 86.171875 66.65625 86.171875 C 67.550781 86.171875 68.246094 85.824219 68.742188 85.140625 C 69.242188 84.453125 69.492188 83.542969 69.492188 82.417969 Z M 84.179688 82.332031 C 84.179688 84.144531 83.6875 85.578125 82.699219 86.632812 C 81.816406 87.570312 80.71875 88.035156 79.410156 88.035156 C 77.996094 88.035156 76.980469 87.535156 76.363281 86.523438 L 76.363281 92.121094 L 73.992188 92.121094 L 73.992188 80.632812 C 73.992188 79.496094 73.960938 78.328125 73.902344 77.128906 L 75.988281 77.128906 L 76.121094 78.820312 L 76.164062 78.820312 C 76.957031 77.542969 78.15625 76.90625 79.765625 76.90625 C 81.023438 76.90625 82.074219 77.40625 82.917969 78.398438 C 83.757812 79.398438 84.179688 80.707031 84.179688 82.332031 Z M 81.761719 82.417969 C 81.761719 81.378906 81.527344 80.523438 81.058594 79.847656 C 80.546875 79.148438 79.859375 78.796875 78.996094 78.796875 C 78.410156 78.796875 77.878906 78.992188 77.402344 79.375 C 76.925781 79.765625 76.617188 80.273438 76.472656 80.902344 C 76.398438 81.195312 76.359375 81.4375 76.359375 81.625 L 76.359375 83.40625 C 76.359375 84.179688 76.597656 84.835938 77.074219 85.371094 C 77.550781 85.902344 78.167969 86.171875 78.929688 86.171875 C 79.824219 86.171875 80.519531 85.824219 81.015625 85.140625 C 81.511719 84.453125 81.761719 83.542969 81.761719 82.417969 Z M 97.902344 83.644531 C 97.902344 84.90625 97.460938 85.929688 96.585938 86.71875 C 95.621094 87.582031 94.277344 88.015625 92.554688 88.015625 C 90.960938 88.015625 89.6875 87.707031 88.722656 87.09375 L 89.269531 85.117188 C 90.3125 85.734375 91.453125 86.039062 92.695312 86.039062 C 93.589844 86.039062 94.285156 85.839844 94.78125 85.4375 C 95.277344 85.035156 95.527344 84.496094 95.527344 83.824219 C 95.527344 83.222656 95.320312 82.71875 94.914062 82.308594 C 94.503906 81.902344 93.824219 81.519531 92.871094 81.167969 C 90.28125 80.203125 88.984375 78.789062 88.984375 76.929688 C 88.984375 75.71875 89.441406 74.722656 90.355469 73.945312 C 91.269531 73.171875 92.480469 72.78125 93.988281 72.78125 C 95.335938 72.78125 96.457031 73.015625 97.347656 73.484375 L 96.753906 75.417969 C 95.917969 74.964844 94.96875 74.738281 93.910156 74.738281 C 93.074219 74.738281 92.417969 74.941406 91.949219 75.351562 C 91.554688 75.71875 91.355469 76.164062 91.355469 76.691406 C 91.355469 77.277344 91.582031 77.761719 92.035156 78.140625 C 92.429688 78.492188 93.148438 78.871094 94.1875 79.28125 C 95.460938 79.792969 96.398438 80.394531 96.996094 81.078125 C 97.601562 81.765625 97.902344 82.625 97.902344 83.644531 Z M 105.757812 78.90625 L 103.148438 78.90625 L 103.148438 84.085938 C 103.148438 85.402344 103.605469 86.058594 104.53125 86.058594 C 104.953125 86.058594 105.304688 86.023438 105.582031 85.949219 L 105.648438 87.75 C 105.179688 87.925781 104.566406 88.011719 103.804688 88.011719 C 102.867188 88.011719 102.136719 87.726562 101.609375 87.15625 C 101.082031 86.585938 100.816406 85.625 100.816406 84.28125 L 100.816406 78.902344 L 99.261719 78.902344 L 99.261719 77.125 L 100.816406 77.125 L 100.816406 75.171875 L 103.148438 74.46875 L 103.148438 77.125 L 105.757812 77.125 Z M 117.527344 82.375 C 117.527344 84.015625 117.058594 85.359375 116.121094 86.414062 C 115.140625 87.496094 113.839844 88.035156 112.214844 88.035156 C 110.644531 88.035156 109.398438 87.519531 108.46875 86.480469 C 107.539062 85.441406 107.074219 84.132812 107.074219 82.550781 C 107.074219 80.898438 107.554688 79.542969 108.511719 78.492188 C 109.472656 77.4375 110.765625 76.910156 112.390625 76.910156 C 113.957031 76.910156 115.210938 77.429688 116.164062 78.46875 C 117.074219 79.476562 117.527344 80.777344 117.527344 82.375 Z M 115.070312 82.429688 C 115.070312 81.453125 114.859375 80.613281 114.433594 79.910156 C 113.9375 79.0625 113.226562 78.640625 112.304688 78.640625 C 111.355469 78.640625 110.625 79.0625 110.128906 79.910156 C 109.707031 80.613281 109.492188 81.464844 109.492188 82.472656 C 109.492188 83.453125 109.707031 84.292969 110.128906 84.992188 C 110.640625 85.839844 111.359375 86.261719 112.285156 86.261719 C 113.191406 86.261719 113.902344 85.828125 114.414062 84.96875 C 114.851562 84.25 115.070312 83.40625 115.070312 82.429688 Z M 125.238281 79.210938 C 124.988281 79.167969 124.738281 79.144531 124.488281 79.148438 C 123.65625 79.148438 123.011719 79.460938 122.554688 80.089844 C 122.164062 80.648438 121.964844 81.351562 121.964844 82.199219 L 121.964844 87.796875 L 119.59375 87.796875 L 119.59375 80.488281 C 119.597656 79.367188 119.574219 78.246094 119.523438 77.128906 L 121.589844 77.128906 L 121.675781 79.171875 L 121.742188 79.171875 C 121.992188 78.46875 122.386719 77.902344 122.929688 77.480469 C 123.421875 77.109375 124.023438 76.910156 124.640625 76.90625 C 124.859375 76.90625 125.058594 76.921875 125.234375 76.949219 Z M 135.839844 81.957031 C 135.84375 82.316406 135.816406 82.675781 135.753906 83.03125 L 128.640625 83.03125 C 128.667969 84.085938 129.011719 84.894531 129.671875 85.449219 C 130.273438 85.945312 131.046875 86.195312 132 86.195312 C 133.050781 86.195312 134.011719 86.027344 134.875 85.691406 L 135.246094 87.335938 C 134.238281 87.773438 133.046875 87.992188 131.671875 87.992188 C 130.015625 87.992188 128.71875 87.507812 127.773438 86.535156 C 126.828125 85.5625 126.355469 84.253906 126.355469 82.617188 C 126.355469 81.011719 126.796875 79.671875 127.675781 78.601562 C 128.597656 77.460938 129.839844 76.890625 131.40625 76.890625 C 132.945312 76.890625 134.109375 77.460938 134.898438 78.601562 C 135.523438 79.503906 135.839844 80.625 135.839844 81.957031 Z M 133.578125 81.34375 C 133.59375 80.636719 133.441406 80.03125 133.117188 79.519531 C 132.707031 78.859375 132.078125 78.53125 131.230469 78.53125 C 130.457031 78.53125 129.824219 78.851562 129.34375 79.496094 C 128.949219 80.007812 128.714844 80.625 128.640625 81.339844 Z M 133.578125 81.34375 "/>
<path style=" stroke:none;fill-rule:nonzero;fill:rgb(100%,100%,100%);fill-opacity:1;" d="M 50.273438 67.769531 C 49.617188 67.769531 49.046875 67.738281 48.570312 67.683594 L 48.570312 60.53125 C 49.234375 60.429688 49.90625 60.378906 50.578125 60.378906 C 53.296875 60.378906 54.546875 61.71875 54.546875 63.898438 C 54.546875 66.410156 53.070312 67.769531 50.273438 67.769531 Z M 50.671875 61.296875 C 50.304688 61.296875 49.992188 61.320312 49.734375 61.371094 L 49.734375 66.808594 C 49.875 66.832031 50.144531 66.84375 50.523438 66.84375 C 52.304688 66.84375 53.316406 65.828125 53.316406 63.929688 C 53.316406 62.238281 52.398438 61.296875 50.671875 61.296875 Z M 58.449219 67.824219 C 56.917969 67.824219 55.925781 66.679688 55.925781 65.128906 C 55.925781 63.507812 56.9375 62.355469 58.539062 62.355469 C 60.046875 62.355469 61.0625 63.445312 61.0625 65.042969 C 61.0625 66.679688 60.015625 67.824219 58.449219 67.824219 Z M 58.496094 63.207031 C 57.652344 63.207031 57.113281 63.992188 57.113281 65.09375 C 57.113281 66.175781 57.664062 66.960938 58.484375 66.960938 C 59.304688 66.960938 59.855469 66.121094 59.855469 65.074219 C 59.855469 64.003906 59.316406 63.207031 58.496094 63.207031 Z M 69.800781 62.464844 L 68.160156 67.707031 L 67.09375 67.707031 L 66.414062 65.429688 C 66.242188 64.871094 66.101562 64.308594 65.992188 63.734375 L 65.96875 63.734375 C 65.882812 64.308594 65.722656 64.878906 65.546875 65.429688 L 64.824219 67.707031 L 63.746094 67.707031 L 62.203125 62.464844 L 63.398438 62.464844 L 63.992188 64.957031 C 64.132812 65.550781 64.25 66.109375 64.351562 66.640625 L 64.371094 66.640625 C 64.457031 66.199219 64.597656 65.644531 64.804688 64.964844 L 65.546875 62.464844 L 66.5 62.464844 L 67.210938 64.914062 C 67.382812 65.507812 67.523438 66.089844 67.632812 66.640625 L 67.664062 66.640625 C 67.738281 66.101562 67.859375 65.527344 68.019531 64.914062 L 68.65625 62.464844 Z M 75.839844 67.707031 L 74.671875 67.707031 L 74.671875 64.695312 C 74.671875 63.769531 74.316406 63.304688 73.617188 63.304688 C 72.925781 63.304688 72.449219 63.898438 72.449219 64.585938 L 72.449219 67.707031 L 71.285156 67.707031 L 71.285156 63.960938 C 71.285156 63.5 71.273438 63 71.242188 62.460938 L 72.265625 62.460938 L 72.320312 63.269531 L 72.355469 63.269531 C 72.667969 62.710938 73.304688 62.355469 74.015625 62.355469 C 75.117188 62.355469 75.839844 63.195312 75.839844 64.566406 Z M 79.050781 67.707031 L 77.886719 67.707031 L 77.886719 60.058594 L 79.050781 60.058594 Z M 83.300781 67.824219 C 81.769531 67.824219 80.777344 66.679688 80.777344 65.128906 C 80.777344 63.507812 81.789062 62.355469 83.386719 62.355469 C 84.898438 62.355469 85.914062 63.445312 85.914062 65.042969 C 85.914062 66.679688 84.867188 67.824219 83.300781 67.824219 Z M 83.34375 63.207031 C 82.503906 63.207031 81.964844 63.992188 81.964844 65.09375 C 81.964844 66.175781 82.515625 66.960938 83.332031 66.960938 C 84.152344 66.960938 84.703125 66.121094 84.703125 65.074219 C 84.703125 64.003906 84.164062 63.207031 83.34375 63.207031 Z M 90.507812 67.707031 L 90.421875 67.101562 L 90.390625 67.101562 C 90.035156 67.589844 89.515625 67.824219 88.859375 67.824219 C 87.917969 67.824219 87.25 67.167969 87.25 66.28125 C 87.25 64.988281 88.375 64.320312 90.316406 64.320312 L 90.316406 64.222656 C 90.316406 63.53125 89.949219 63.1875 89.226562 63.1875 C 88.710938 63.1875 88.257812 63.316406 87.859375 63.574219 L 87.621094 62.808594 C 88.105469 62.507812 88.710938 62.355469 89.421875 62.355469 C 90.789062 62.355469 91.484375 63.078125 91.484375 64.523438 L 91.484375 66.457031 C 91.484375 66.984375 91.507812 67.394531 91.558594 67.707031 Z M 90.347656 65.09375 C 89.054688 65.09375 88.402344 65.40625 88.402344 66.152344 C 88.402344 66.703125 88.738281 66.972656 89.203125 66.972656 C 89.796875 66.972656 90.347656 66.519531 90.347656 65.902344 Z M 97.140625 67.707031 L 97.085938 66.863281 L 97.054688 66.863281 C 96.71875 67.5 96.15625 67.824219 95.371094 67.824219 C 94.105469 67.824219 93.171875 66.714844 93.171875 65.148438 C 93.171875 63.507812 94.140625 62.355469 95.46875 62.355469 C 96.167969 62.355469 96.664062 62.589844 96.945312 63.066406 L 96.96875 63.066406 L 96.96875 60.058594 L 98.136719 60.058594 L 98.136719 66.292969 C 98.136719 66.800781 98.148438 67.273438 98.179688 67.707031 Z M 96.96875 64.621094 C 96.96875 63.886719 96.484375 63.261719 95.742188 63.261719 C 94.878906 63.261719 94.347656 64.027344 94.347656 65.105469 C 94.347656 66.164062 94.898438 66.886719 95.71875 66.886719 C 96.449219 66.886719 96.96875 66.25 96.96875 65.496094 Z M 105.53125 67.824219 C 104 67.824219 103.007812 66.679688 103.007812 65.128906 C 103.007812 63.507812 104.023438 62.355469 105.617188 62.355469 C 107.128906 62.355469 108.144531 63.445312 108.144531 65.042969 C 108.144531 66.679688 107.097656 67.824219 105.53125 67.824219 Z M 105.574219 63.207031 C 104.734375 63.207031 104.195312 63.992188 104.195312 65.09375 C 104.195312 66.175781 104.746094 66.960938 105.5625 66.960938 C 106.382812 66.960938 106.933594 66.121094 106.933594 65.074219 C 106.9375 64.003906 106.398438 63.207031 105.574219 63.207031 Z M 114.410156 67.707031 L 113.246094 67.707031 L 113.246094 64.695312 C 113.246094 63.769531 112.890625 63.304688 112.1875 63.304688 C 111.496094 63.304688 111.023438 63.898438 111.023438 64.585938 L 111.023438 67.707031 L 109.855469 67.707031 L 109.855469 63.960938 C 109.855469 63.5 109.84375 63 109.8125 62.460938 L 110.839844 62.460938 L 110.894531 63.269531 L 110.925781 63.269531 C 111.238281 62.710938 111.875 62.355469 112.585938 62.355469 C 113.6875 62.355469 114.410156 63.195312 114.410156 64.566406 Z M 122.25 63.335938 L 120.96875 63.335938 L 120.96875 65.882812 C 120.96875 66.53125 121.195312 66.855469 121.648438 66.855469 C 121.855469 66.855469 122.027344 66.832031 122.164062 66.800781 L 122.199219 67.683594 C 121.972656 67.773438 121.667969 67.816406 121.292969 67.816406 C 120.375 67.816406 119.824219 67.308594 119.824219 65.980469 L 119.824219 63.335938 L 119.058594 63.335938 L 119.058594 62.464844 L 119.824219 62.464844 L 119.824219 61.503906 L 120.96875 61.15625 L 120.96875 62.460938 L 122.25 62.460938 Z M 128.421875 67.707031 L 127.257812 67.707031 L 127.257812 64.71875 C 127.257812 63.78125 126.902344 63.304688 126.199219 63.304688 C 125.597656 63.304688 125.03125 63.714844 125.03125 64.546875 L 125.03125 67.707031 L 123.867188 67.707031 L 123.867188 60.058594 L 125.03125 60.058594 L 125.03125 63.207031 L 125.054688 63.207031 C 125.421875 62.636719 125.953125 62.355469 126.632812 62.355469 C 127.742188 62.355469 128.421875 63.21875 128.421875 64.585938 Z M 134.742188 65.363281 L 131.246094 65.363281 C 131.265625 66.359375 131.925781 66.917969 132.898438 66.917969 C 133.414062 66.917969 133.890625 66.832031 134.308594 66.671875 L 134.492188 67.480469 C 133.996094 67.695312 133.410156 67.804688 132.734375 67.804688 C 131.09375 67.804688 130.121094 66.765625 130.121094 65.160156 C 130.121094 63.550781 131.117188 62.34375 132.601562 62.34375 C 133.941406 62.34375 134.78125 63.335938 134.78125 64.835938 C 134.789062 65.015625 134.777344 65.191406 134.742188 65.363281 Z M 133.671875 64.535156 C 133.671875 63.726562 133.265625 63.152344 132.519531 63.152344 C 131.851562 63.152344 131.320312 63.734375 131.246094 64.535156 Z M 133.671875 64.535156 "/>
</g>
</svg>
