<?xml version="1.0" encoding="UTF-8"?>
<svg xmlns="http://www.w3.org/2000/svg" xmlns:xlink="http://www.w3.org/1999/xlink" width="150px" height="150px" viewBox="0 0 150 150" version="1.1">
<defs>
<clipPath id="clip1">
  <path d="M 11 60 L 28.5 60 L 28.5 93 L 11 93 Z M 11 60 "/>
</clipPath>
<clipPath id="clip2">
  <path d="M 32.507812 72.0625 L 25.742188 68.160156 C 25.742188 68.160156 13.421875 61.046875 12.695312 60.625 C 11.972656 60.210938 11.25 60.460938 11.25 61.335938 L 11.25 92.023438 C 11.25 92.679688 11.765625 92.960938 12.398438 92.601562 C 13.023438 92.234375 25.742188 84.894531 25.742188 84.894531 L 32.507812 80.992188 C 32.507812 80.992188 38.246094 77.675781 39.007812 77.234375 C 39.773438 76.796875 39.695312 76.191406 39.054688 75.84375 C 38.410156 75.5 32.507812 72.0625 32.507812 72.0625 Z M 32.507812 72.0625 "/>
</clipPath>
<linearGradient id="linear0" gradientUnits="userSpaceOnUse" x1="1451.479" y1="2452.512" x2="1451.479" y2="2339.209" gradientTransform="matrix(0.293266,0,0,-0.293266,-406.041348,779.152724)">
<stop offset="0" style="stop-color:rgb(14.509804%,48.627451%,69.019608%);stop-opacity:1;"/>
<stop offset="0.286" style="stop-color:rgb(29.019608%,57.647059%,70.980392%);stop-opacity:1;"/>
<stop offset="0.767" style="stop-color:rgb(47.058824%,73.72549%,73.333333%);stop-opacity:1;"/>
<stop offset="1" style="stop-color:rgb(53.72549%,81.176471%,74.117647%);stop-opacity:1;"/>
</linearGradient>
<clipPath id="clip3">
  <path d="M 11 60 L 33 60 L 33 77 L 11 77 Z M 11 60 "/>
</clipPath>
<clipPath id="clip4">
  <path d="M 32.507812 72.0625 L 25.742188 68.160156 C 25.742188 68.160156 13.421875 61.046875 12.695312 60.625 C 11.972656 60.210938 11.25 60.460938 11.25 61.335938 L 11.25 92.023438 C 11.25 92.679688 11.765625 92.960938 12.398438 92.601562 C 13.023438 92.234375 25.742188 84.894531 25.742188 84.894531 L 32.507812 80.992188 C 32.507812 80.992188 38.246094 77.675781 39.007812 77.234375 C 39.773438 76.796875 39.695312 76.191406 39.054688 75.84375 C 38.410156 75.5 32.507812 72.0625 32.507812 72.0625 Z M 32.507812 72.0625 "/>
</clipPath>
<linearGradient id="linear1" gradientUnits="userSpaceOnUse" x1="1422.913" y1="2424.393" x2="1495.392" y2="2424.393" gradientTransform="matrix(0.293266,0,0,-0.293266,-406.041348,779.152724)">
<stop offset="0" style="stop-color:rgb(32.156863%,75.686275%,67.843137%);stop-opacity:1;"/>
<stop offset="1" style="stop-color:rgb(87.058824%,90.980392%,60.392157%);stop-opacity:1;"/>
</linearGradient>
<clipPath id="clip5">
  <path d="M 11 76.5 L 33 76.5 L 33 93 L 11 93 Z M 11 76.5 "/>
</clipPath>
<clipPath id="clip6">
  <path d="M 32.507812 72.0625 L 25.742188 68.160156 C 25.742188 68.160156 13.421875 61.046875 12.695312 60.625 C 11.972656 60.210938 11.25 60.460938 11.25 61.335938 L 11.25 92.023438 C 11.25 92.679688 11.765625 92.960938 12.398438 92.601562 C 13.023438 92.234375 25.742188 84.894531 25.742188 84.894531 L 32.507812 80.992188 C 32.507812 80.992188 38.246094 77.675781 39.007812 77.234375 C 39.773438 76.796875 39.695312 76.191406 39.054688 75.84375 C 38.410156 75.5 32.507812 72.0625 32.507812 72.0625 Z M 32.507812 72.0625 "/>
</clipPath>
<linearGradient id="linear2" gradientUnits="userSpaceOnUse" x1="1459.151" y1="2395.86" x2="1459.151" y2="2338.797" gradientTransform="matrix(0.293266,0,0,-0.293266,-406.041348,779.152724)">
<stop offset="0" style="stop-color:rgb(92.54902%,25.490196%,23.921569%);stop-opacity:1;"/>
<stop offset="0.167" style="stop-color:rgb(85.490196%,26.666667%,32.156863%);stop-opacity:1;"/>
<stop offset="0.575" style="stop-color:rgb(69.019608%,28.235294%,47.843137%);stop-opacity:1;"/>
<stop offset="0.862" style="stop-color:rgb(58.431373%,29.019608%,57.254902%);stop-opacity:1;"/>
<stop offset="1" style="stop-color:rgb(54.117647%,29.019608%,61.568627%);stop-opacity:1;"/>
</linearGradient>
<clipPath id="clip7">
  <path d="M 28 72 L 40 72 L 40 81 L 28 81 Z M 28 72 "/>
</clipPath>
<clipPath id="clip8">
  <path d="M 32.507812 72.0625 L 25.742188 68.160156 C 25.742188 68.160156 13.421875 61.046875 12.695312 60.625 C 11.972656 60.210938 11.25 60.460938 11.25 61.335938 L 11.25 92.023438 C 11.25 92.679688 11.765625 92.960938 12.398438 92.601562 C 13.023438 92.234375 25.742188 84.894531 25.742188 84.894531 L 32.507812 80.992188 C 32.507812 80.992188 38.246094 77.675781 39.007812 77.234375 C 39.773438 76.796875 39.695312 76.191406 39.054688 75.84375 C 38.410156 75.5 32.507812 72.0625 32.507812 72.0625 Z M 32.507812 72.0625 "/>
</clipPath>
<linearGradient id="linear3" gradientUnits="userSpaceOnUse" x1="1500.897" y1="2411.077" x2="1500.897" y2="2380.646" gradientTransform="matrix(0.293266,0,0,-0.293266,-406.041348,779.152724)">
<stop offset="0" style="stop-color:rgb(96.078431%,53.333333%,47.45098%);stop-opacity:1;"/>
<stop offset="0.119" style="stop-color:rgb(96.470588%,56.470588%,47.45098%);stop-opacity:1;"/>
<stop offset="0.713" style="stop-color:rgb(98.823529%,72.156863%,46.666667%);stop-opacity:1;"/>
<stop offset="1" style="stop-color:rgb(99.607843%,78.431373%,45.490196%);stop-opacity:1;"/>
</linearGradient>
</defs>
<g id="surface1">
<path style=" stroke:none;fill-rule:nonzero;fill:rgb(0%,0%,0%);fill-opacity:1;" d="M 150 92.902344 C 150 96.5625 147.03125 99.53125 143.371094 99.53125 L 6.632812 99.53125 C 2.96875 99.53125 0 96.5625 0 92.902344 L 0 57.097656 C 0 53.4375 2.96875 50.46875 6.632812 50.46875 L 143.371094 50.46875 C 147.03125 50.46875 150 53.4375 150 57.097656 Z M 150 92.902344 "/>
<g clip-path="url(#clip1)" clip-rule="nonzero">
<g clip-path="url(#clip2)" clip-rule="nonzero">
<path style=" stroke:none;fill-rule:nonzero;fill:url(#linear0);" d="M 11.25 59.914062 L 11.25 93.140625 L 28.007812 76.527344 Z M 11.25 59.914062 "/>
</g>
</g>
<g clip-path="url(#clip3)" clip-rule="nonzero">
<g clip-path="url(#clip4)" clip-rule="nonzero">
<path style=" stroke:none;fill-rule:nonzero;fill:url(#linear1);" d="M 32.507812 72.0625 L 25.742188 68.160156 L 11.25 59.792969 L 11.25 59.914062 L 28.007812 76.527344 Z M 32.507812 72.0625 "/>
</g>
</g>
<g clip-path="url(#clip5)" clip-rule="nonzero">
<g clip-path="url(#clip6)" clip-rule="nonzero">
<path style=" stroke:none;fill-rule:nonzero;fill:url(#linear2);" d="M 11.25 93.140625 L 11.25 93.261719 L 25.742188 84.894531 L 32.507812 80.988281 L 28.007812 76.527344 Z M 11.25 93.140625 "/>
</g>
</g>
<g clip-path="url(#clip7)" clip-rule="nonzero">
<g clip-path="url(#clip8)" clip-rule="nonzero">
<path style=" stroke:none;fill-rule:nonzero;fill:url(#linear3);" d="M 32.507812 72.0625 L 28.007812 76.527344 L 32.507812 80.988281 L 40.234375 76.527344 Z M 32.507812 72.0625 "/>
</g>
</g>
<path style=" stroke:none;fill-rule:nonzero;fill:rgb(97.647059%,97.647059%,97.647059%);fill-opacity:1;" d="M 116.734375 83.023438 C 116.109375 83.023438 115.53125 82.90625 115.015625 82.671875 C 114.492188 82.441406 114.054688 82.085938 113.703125 81.601562 L 113.597656 81.601562 C 113.667969 82.167969 113.703125 82.703125 113.703125 83.207031 L 113.703125 87.183594 L 112.242188 87.183594 L 112.242188 73.183594 L 113.429688 73.183594 L 113.632812 74.507812 L 113.703125 74.507812 C 114.078125 73.976562 114.515625 73.59375 115.015625 73.359375 C 115.515625 73.125 116.089844 73.007812 116.734375 73.007812 C 118.015625 73.007812 119.007812 73.445312 119.703125 74.320312 C 120.398438 75.195312 120.75 76.421875 120.75 78.007812 C 120.75 79.59375 120.394531 80.824219 119.6875 81.703125 C 118.976562 82.585938 117.996094 83.023438 116.734375 83.023438 Z M 116.523438 74.25 C 115.539062 74.25 114.824219 74.523438 114.382812 75.070312 C 113.941406 75.617188 113.71875 76.484375 113.703125 77.679688 L 113.703125 78.007812 C 113.703125 79.363281 113.929688 80.335938 114.382812 80.921875 C 114.835938 81.507812 115.5625 81.796875 116.5625 81.796875 C 117.398438 81.796875 118.046875 81.460938 118.523438 80.78125 C 118.996094 80.109375 119.234375 79.175781 119.234375 77.988281 C 119.234375 76.78125 118.996094 75.859375 118.523438 75.214844 C 118.050781 74.570312 117.382812 74.25 116.523438 74.25 Z M 124.136719 82.84375 L 122.671875 82.84375 L 122.671875 69.125 L 124.136719 69.125 Z M 132.554688 82.84375 L 132.261719 81.46875 L 132.191406 81.46875 C 131.710938 82.078125 131.226562 82.484375 130.75 82.703125 C 130.269531 82.914062 129.671875 83.023438 128.953125 83.023438 C 128 83.023438 127.246094 82.773438 126.703125 82.28125 C 126.15625 81.789062 125.886719 81.085938 125.886719 80.171875 C 125.886719 78.222656 127.445312 77.203125 130.570312 77.105469 L 132.210938 77.054688 L 132.210938 76.453125 C 132.210938 75.695312 132.046875 75.132812 131.71875 74.773438 C 131.390625 74.414062 130.871094 74.234375 130.15625 74.234375 C 129.351562 74.234375 128.4375 74.476562 127.421875 74.972656 L 126.96875 73.851562 C 127.445312 73.59375 127.96875 73.390625 128.539062 73.242188 C 129.101562 73.097656 129.671875 73.023438 130.242188 73.023438 C 131.394531 73.023438 132.25 73.28125 132.804688 73.789062 C 133.359375 74.304688 133.636719 75.121094 133.636719 76.25 L 133.636719 82.84375 Z M 129.246094 81.8125 C 130.15625 81.8125 130.875 81.5625 131.390625 81.0625 C 131.914062 80.566406 132.171875 79.867188 132.171875 78.96875 L 132.171875 78.09375 L 130.710938 78.15625 C 129.546875 78.195312 128.707031 78.375 128.191406 78.695312 C 127.679688 79.015625 127.421875 79.515625 127.421875 80.195312 C 127.421875 80.71875 127.578125 81.125 127.898438 81.398438 C 128.222656 81.675781 128.671875 81.8125 129.246094 81.8125 Z M 134.484375 73.183594 L 136.054688 73.183594 L 138.171875 78.695312 C 138.636719 79.953125 138.921875 80.859375 139.039062 81.417969 L 139.109375 81.417969 C 139.183594 81.117188 139.34375 80.605469 139.585938 79.878906 C 139.828125 79.152344 140.628906 76.921875 141.980469 73.183594 L 143.550781 73.183594 L 139.398438 84.1875 C 138.984375 85.273438 138.507812 86.046875 137.953125 86.5 C 137.40625 86.957031 136.730469 87.183594 135.933594 87.183594 C 135.484375 87.183594 135.046875 87.132812 134.609375 87.035156 L 134.609375 85.859375 C 134.933594 85.929688 135.296875 85.96875 135.695312 85.96875 C 136.699219 85.96875 137.414062 85.40625 137.84375 84.273438 L 138.382812 82.898438 Z M 89.625 74.078125 C 90.089844 74.464844 91.058594 75.273438 91.058594 76.8125 C 91.058594 78.304688 90.210938 79.015625 89.359375 79.679688 C 89.101562 79.941406 88.796875 80.226562 88.796875 80.671875 C 88.796875 81.117188 89.097656 81.359375 89.320312 81.539062 L 90.046875 82.101562 C 90.9375 82.851562 91.746094 83.539062 91.746094 84.9375 C 91.746094 86.835938 89.90625 88.753906 86.429688 88.753906 C 83.5 88.753906 82.085938 87.359375 82.085938 85.863281 C 82.085938 85.136719 82.445312 84.105469 83.640625 83.398438 C 84.894531 82.632812 86.59375 82.53125 87.5 82.46875 C 87.21875 82.101562 86.898438 81.71875 86.898438 81.09375 C 86.898438 80.75 87 80.546875 87.097656 80.304688 C 86.875 80.328125 86.652344 80.34375 86.453125 80.34375 C 84.308594 80.34375 83.09375 78.75 83.09375 77.171875 C 83.09375 76.242188 83.523438 75.210938 84.390625 74.464844 C 85.539062 73.515625 86.914062 73.351562 88.007812 73.351562 L 92.171875 73.351562 L 90.875 74.078125 Z M 88.1875 83.054688 C 88.027344 83.03125 87.925781 83.03125 87.726562 83.03125 C 87.542969 83.03125 86.453125 83.078125 85.601562 83.359375 C 85.15625 83.519531 83.863281 84.003906 83.863281 85.4375 C 83.863281 86.875 85.257812 87.90625 87.421875 87.90625 C 89.359375 87.90625 90.390625 86.976562 90.390625 85.722656 C 90.390625 84.691406 89.726562 84.148438 88.1875 83.054688 Z M 88.773438 79.214844 C 89.242188 78.75 89.28125 78.101562 89.28125 77.738281 C 89.28125 76.28125 88.414062 74.019531 86.734375 74.019531 C 86.210938 74.019531 85.640625 74.28125 85.320312 74.6875 C 84.976562 75.109375 84.875 75.65625 84.875 76.183594 C 84.875 77.539062 85.664062 79.78125 87.398438 79.78125 C 87.90625 79.78125 88.453125 79.539062 88.773438 79.214844 Z M 76.898438 82.734375 C 73.691406 82.734375 71.976562 80.226562 71.976562 77.96875 C 71.976562 75.324219 74.136719 73.066406 77.203125 73.066406 C 80.171875 73.066406 82.023438 75.382812 82.023438 77.828125 C 82.023438 80.210938 80.191406 82.734375 76.898438 82.734375 Z M 79.421875 81.097656 C 79.90625 80.453125 80.03125 79.644531 80.03125 78.859375 C 80.03125 77.078125 79.179688 73.691406 76.679688 73.691406 C 76.015625 73.691406 75.347656 73.953125 74.863281 74.378906 C 74.078125 75.085938 73.933594 75.96875 73.933594 76.839844 C 73.933594 78.835938 74.921875 82.125 77.367188 82.125 C 78.152344 82.125 78.960938 81.742188 79.421875 81.097656 Z M 65.960938 82.734375 C 62.753906 82.734375 61.039062 80.226562 61.039062 77.96875 C 61.039062 75.324219 63.199219 73.066406 66.265625 73.066406 C 69.234375 73.066406 71.085938 75.382812 71.085938 77.828125 C 71.085938 80.210938 69.25 82.734375 65.960938 82.734375 Z M 68.484375 81.097656 C 68.96875 80.453125 69.09375 79.644531 69.09375 78.859375 C 69.09375 77.078125 68.242188 73.691406 65.742188 73.691406 C 65.078125 73.691406 64.40625 73.953125 63.925781 74.378906 C 63.140625 75.085938 62.996094 75.96875 62.996094 76.839844 C 62.996094 78.835938 63.984375 82.125 66.429688 82.125 C 67.214844 82.125 68.023438 81.742188 68.484375 81.097656 Z M 59.5 82.414062 L 56.59375 83.085938 C 55.417969 83.265625 54.363281 83.429688 53.25 83.429688 C 47.648438 83.429688 45.519531 79.3125 45.519531 76.085938 C 45.519531 72.148438 48.539062 68.5 53.714844 68.5 C 54.8125 68.5 55.867188 68.660156 56.820312 68.921875 C 58.339844 69.351562 59.050781 69.875 59.496094 70.179688 L 57.8125 71.785156 L 57.101562 71.945312 L 57.609375 71.132812 C 56.921875 70.464844 55.664062 69.226562 53.265625 69.226562 C 50.0625 69.226562 47.648438 71.664062 47.648438 75.210938 C 47.648438 79.027344 50.40625 82.617188 54.828125 82.617188 C 56.128906 82.617188 56.796875 82.351562 57.40625 82.109375 L 57.40625 78.84375 L 54.34375 79.007812 L 55.964844 78.132812 L 60.265625 78.132812 L 59.742188 78.640625 C 59.597656 78.765625 59.578125 78.804688 59.539062 78.964844 C 59.515625 79.148438 59.496094 79.734375 59.496094 79.9375 L 59.496094 82.414062 Z M 59.5 82.414062 "/>
<path style=" stroke:none;fill-rule:nonzero;fill:rgb(97.647059%,97.647059%,97.647059%);fill-opacity:1;" d="M 96.039062 81.832031 C 95.367188 81.769531 95.226562 81.648438 95.226562 80.859375 L 95.226562 69.375 C 95.230469 69.328125 95.234375 69.285156 95.238281 69.242188 C 95.320312 68.53125 95.523438 68.414062 96.152344 68.046875 L 93.25 68.046875 L 91.726562 68.777344 L 93.28125 68.777344 L 93.28125 68.785156 L 93.277344 68.78125 L 93.277344 81.304688 C 93.277344 81.710938 93.195312 81.769531 92.730469 82.378906 L 96.320312 82.378906 L 97.070312 81.933594 C 96.726562 81.890625 96.382812 81.871094 96.039062 81.832031 Z M 104.292969 82.015625 C 104.070312 82.140625 103.851562 82.28125 103.628906 82.382812 C 102.960938 82.679688 102.28125 82.765625 101.671875 82.765625 C 101.03125 82.765625 100.023438 82.722656 98.992188 81.976562 C 97.5625 80.96875 96.9375 79.234375 96.9375 77.726562 C 96.9375 74.601562 99.476562 73.070312 101.554688 73.070312 C 102.277344 73.070312 103.023438 73.253906 103.628906 73.636719 C 104.632812 74.300781 104.898438 75.164062 105.039062 75.632812 L 100.304688 77.546875 L 98.75 77.664062 C 99.257812 80.226562 100.988281 81.714844 102.902344 81.714844 C 103.929688 81.714844 104.675781 81.351562 105.359375 81.007812 Z M 102.398438 76.011719 C 102.78125 75.875 102.984375 75.75 102.984375 75.46875 C 102.984375 74.664062 102.078125 73.734375 100.988281 73.734375 C 100.179688 73.734375 98.671875 74.359375 98.671875 76.539062 C 98.671875 76.878906 98.710938 77.242188 98.734375 77.605469 Z M 106.234375 73.210938 L 106.234375 74.539062 L 106.078125 74.539062 L 106.078125 73.210938 L 105.636719 73.210938 L 105.636719 73.070312 L 106.679688 73.070312 L 106.679688 73.210938 Z M 108.046875 74.539062 L 108.046875 73.195312 L 108.042969 73.195312 L 107.632812 74.539062 L 107.507812 74.539062 L 107.09375 73.195312 L 107.085938 73.195312 L 107.085938 74.539062 L 106.941406 74.539062 L 106.941406 73.070312 L 107.195312 73.070312 L 107.566406 74.257812 L 107.570312 74.257812 L 107.9375 73.070312 L 108.195312 73.070312 L 108.195312 74.539062 Z M 108.046875 74.539062 "/>
<path style=" stroke:none;fill-rule:nonzero;fill:rgb(97.647059%,97.647059%,98.039216%);fill-opacity:1;" d="M 49.546875 64.546875 L 48.539062 64.546875 C 48.539062 64.40625 48.445312 64.015625 48.253906 63.367188 L 46.796875 63.367188 C 46.601562 64.007812 46.5 64.398438 46.5 64.546875 L 45.554688 64.546875 C 45.554688 64.46875 45.796875 63.792969 46.289062 62.53125 C 46.78125 61.269531 47.023438 60.574219 47.023438 60.445312 L 48.214844 60.445312 C 48.214844 60.566406 48.4375 61.25 48.882812 62.5 C 49.328125 63.75 49.546875 64.433594 49.546875 64.546875 Z M 48.09375 62.765625 C 47.734375 61.683594 47.554688 61.097656 47.554688 61.007812 L 47.503906 61.007812 C 47.503906 61.09375 47.320312 61.679688 46.945312 62.765625 Z M 53.609375 64.546875 L 52.832031 64.546875 C 52.832031 64.460938 52.546875 64.007812 51.96875 63.183594 C 51.359375 62.316406 51.015625 61.722656 50.933594 61.40625 L 50.882812 61.40625 C 50.9375 61.863281 50.960938 62.28125 50.960938 62.652344 C 50.960938 63.171875 50.976562 63.804688 51.007812 64.546875 L 50.230469 64.546875 C 50.261719 63.898438 50.277344 63.179688 50.277344 62.402344 C 50.277344 61.636719 50.261719 60.984375 50.230469 60.445312 L 51.164062 60.445312 C 51.164062 60.558594 51.425781 61 51.945312 61.78125 C 52.496094 62.601562 52.8125 63.164062 52.898438 63.460938 L 52.945312 63.460938 C 52.890625 62.992188 52.867188 62.570312 52.867188 62.195312 C 52.867188 61.628906 52.851562 61.046875 52.820312 60.445312 L 53.609375 60.445312 C 53.582031 60.96875 53.566406 61.617188 53.566406 62.402344 C 53.566406 63.191406 53.582031 63.90625 53.609375 64.546875 Z M 58.175781 62.355469 C 58.175781 62.953125 57.984375 63.472656 57.601562 63.917969 C 57.21875 64.363281 56.6875 64.585938 55.996094 64.585938 C 55.6875 64.585938 55.257812 64.570312 54.710938 64.546875 C 54.738281 63.914062 54.75 63.195312 54.75 62.402344 C 54.75 61.640625 54.738281 60.984375 54.710938 60.445312 L 55.261719 60.445312 C 55.351562 60.445312 55.484375 60.445312 55.664062 60.4375 C 55.84375 60.429688 55.960938 60.429688 56.015625 60.429688 C 56.773438 60.429688 57.320312 60.617188 57.664062 60.992188 C 58.007812 61.375 58.175781 61.828125 58.175781 62.355469 Z M 57.316406 62.492188 C 57.316406 62.085938 57.199219 61.75 56.964844 61.46875 C 56.726562 61.195312 56.367188 61.054688 55.886719 61.054688 C 55.796875 61.054688 55.671875 61.066406 55.515625 61.085938 C 55.535156 61.507812 55.546875 61.945312 55.546875 62.402344 C 55.546875 62.90625 55.554688 63.402344 55.578125 63.894531 C 55.710938 63.921875 55.851562 63.9375 55.984375 63.9375 C 56.4375 63.9375 56.773438 63.796875 56.992188 63.515625 C 57.207031 63.234375 57.316406 62.894531 57.316406 62.492188 Z M 62.386719 64.546875 L 61.453125 64.546875 C 61.210938 63.804688 61.023438 63.34375 60.894531 63.171875 C 60.765625 62.996094 60.554688 62.910156 60.265625 62.910156 C 60.140625 62.910156 60.023438 62.910156 59.914062 62.914062 C 59.914062 63.453125 59.921875 64 59.945312 64.546875 L 59.066406 64.546875 C 59.09375 63.914062 59.109375 63.195312 59.109375 62.402344 C 59.109375 61.640625 59.09375 60.984375 59.066406 60.445312 L 59.609375 60.445312 C 59.675781 60.445312 59.804688 60.445312 60.007812 60.4375 C 60.207031 60.429688 60.390625 60.429688 60.5625 60.429688 C 61.527344 60.429688 62.007812 60.757812 62.007812 61.414062 C 62.007812 61.9375 61.734375 62.304688 61.183594 62.507812 L 61.183594 62.554688 C 61.398438 62.617188 61.582031 62.78125 61.742188 63.054688 C 61.898438 63.324219 62.117188 63.820312 62.386719 64.546875 Z M 61.203125 61.648438 C 61.203125 61.230469 60.9375 61.023438 60.398438 61.023438 C 60.203125 61.023438 60.027344 61.039062 59.875 61.066406 C 59.898438 61.390625 59.910156 61.816406 59.910156 62.339844 C 60.027344 62.34375 60.125 62.34375 60.203125 62.34375 C 60.871094 62.34375 61.203125 62.113281 61.203125 61.648438 Z M 66.902344 62.421875 C 66.902344 63.066406 66.703125 63.601562 66.3125 64.023438 C 65.914062 64.449219 65.429688 64.664062 64.84375 64.664062 C 64.289062 64.664062 63.828125 64.46875 63.453125 64.078125 C 63.078125 63.6875 62.890625 63.191406 62.890625 62.59375 C 62.890625 61.945312 63.089844 61.414062 63.484375 60.988281 C 63.878906 60.5625 64.367188 60.351562 64.949219 60.351562 C 65.503906 60.351562 65.96875 60.546875 66.34375 60.933594 C 66.71875 61.320312 66.902344 61.820312 66.902344 62.421875 Z M 66.03125 62.511719 C 66.03125 62.074219 65.921875 61.71875 65.695312 61.445312 C 65.472656 61.171875 65.195312 61.035156 64.867188 61.035156 C 64.558594 61.035156 64.296875 61.171875 64.085938 61.445312 C 63.867188 61.722656 63.761719 62.070312 63.761719 62.492188 C 63.761719 62.929688 63.875 63.28125 64.101562 63.554688 C 64.328125 63.828125 64.601562 63.96875 64.929688 63.96875 C 65.238281 63.96875 65.5 63.828125 65.710938 63.554688 C 65.925781 63.277344 66.03125 62.929688 66.03125 62.511719 Z M 68.683594 64.546875 L 67.792969 64.546875 C 67.820312 63.898438 67.835938 63.179688 67.835938 62.402344 C 67.835938 61.636719 67.820312 60.984375 67.792969 60.445312 L 68.683594 60.445312 C 68.65625 60.976562 68.640625 61.625 68.640625 62.402344 C 68.640625 63.195312 68.65625 63.910156 68.683594 64.546875 Z M 73.25 62.355469 C 73.25 62.953125 73.058594 63.472656 72.679688 63.917969 C 72.296875 64.363281 71.757812 64.585938 71.070312 64.585938 C 70.757812 64.585938 70.328125 64.570312 69.785156 64.546875 C 69.8125 63.914062 69.828125 63.195312 69.828125 62.402344 C 69.828125 61.640625 69.8125 60.984375 69.785156 60.445312 L 70.335938 60.445312 C 70.425781 60.445312 70.5625 60.445312 70.742188 60.4375 C 70.917969 60.429688 71.035156 60.429688 71.089844 60.429688 C 71.847656 60.429688 72.398438 60.617188 72.738281 60.992188 C 73.078125 61.375 73.25 61.828125 73.25 62.355469 Z M 72.390625 62.492188 C 72.390625 62.085938 72.273438 61.75 72.039062 61.46875 C 71.804688 61.195312 71.445312 61.054688 70.960938 61.054688 C 70.867188 61.054688 70.746094 61.066406 70.585938 61.085938 C 70.609375 61.507812 70.617188 61.945312 70.617188 62.402344 C 70.617188 62.90625 70.632812 63.402344 70.648438 63.894531 C 70.785156 63.921875 70.921875 63.9375 71.0625 63.9375 C 71.511719 63.9375 71.84375 63.796875 72.0625 63.515625 C 72.28125 63.234375 72.390625 62.894531 72.390625 62.492188 Z M 79.308594 64.546875 L 78.300781 64.546875 C 78.300781 64.40625 78.203125 64.015625 78.015625 63.367188 L 76.554688 63.367188 C 76.359375 64.007812 76.261719 64.398438 76.261719 64.546875 L 75.3125 64.546875 C 75.3125 64.46875 75.558594 63.792969 76.046875 62.53125 C 76.539062 61.269531 76.785156 60.574219 76.785156 60.445312 L 77.976562 60.445312 C 77.976562 60.566406 78.195312 61.25 78.640625 62.5 C 79.085938 63.75 79.308594 64.433594 79.308594 64.546875 Z M 77.851562 62.765625 C 77.492188 61.683594 77.3125 61.097656 77.3125 61.007812 L 77.265625 61.007812 C 77.265625 61.09375 77.078125 61.679688 76.703125 62.765625 Z M 82.984375 61.519531 C 82.984375 62.023438 82.796875 62.390625 82.421875 62.632812 C 82.050781 62.871094 81.59375 62.992188 81.050781 62.992188 C 80.953125 62.992188 80.882812 62.992188 80.839844 62.984375 C 80.839844 63.382812 80.851562 63.898438 80.875 64.546875 L 79.992188 64.546875 C 80.015625 63.941406 80.03125 63.226562 80.03125 62.402344 C 80.03125 61.648438 80.015625 60.992188 79.992188 60.445312 L 80.539062 60.445312 C 80.617188 60.445312 80.765625 60.445312 80.984375 60.4375 C 81.203125 60.429688 81.398438 60.429688 81.558594 60.429688 C 81.957031 60.429688 82.296875 60.515625 82.570312 60.699219 C 82.84375 60.878906 82.984375 61.152344 82.984375 61.519531 Z M 82.171875 61.695312 C 82.171875 61.242188 81.871094 61.019531 81.273438 61.019531 C 81.125 61.019531 80.96875 61.035156 80.804688 61.066406 C 80.828125 61.460938 80.835938 61.914062 80.835938 62.414062 C 80.890625 62.421875 80.953125 62.421875 81.019531 62.421875 C 81.789062 62.421875 82.171875 62.179688 82.171875 61.695312 Z M 86.761719 61.519531 C 86.761719 62.023438 86.574219 62.390625 86.203125 62.632812 C 85.828125 62.871094 85.371094 62.992188 84.828125 62.992188 C 84.730469 62.992188 84.660156 62.992188 84.617188 62.984375 C 84.617188 63.382812 84.632812 63.898438 84.65625 64.546875 L 83.765625 64.546875 C 83.796875 63.941406 83.808594 63.226562 83.808594 62.402344 C 83.808594 61.648438 83.796875 60.992188 83.765625 60.445312 L 84.316406 60.445312 C 84.394531 60.445312 84.542969 60.445312 84.765625 60.4375 C 84.984375 60.429688 85.175781 60.429688 85.335938 60.429688 C 85.734375 60.429688 86.070312 60.515625 86.347656 60.699219 C 86.625 60.878906 86.761719 61.152344 86.761719 61.519531 Z M 85.949219 61.695312 C 85.949219 61.242188 85.648438 61.019531 85.054688 61.019531 C 84.90625 61.019531 84.746094 61.035156 84.582031 61.066406 C 84.601562 61.460938 84.617188 61.914062 84.617188 62.414062 C 84.667969 62.421875 84.726562 62.421875 84.796875 62.421875 C 85.5625 62.421875 85.949219 62.179688 85.949219 61.695312 Z M 92.9375 62.421875 C 92.9375 63.066406 92.742188 63.601562 92.34375 64.023438 C 91.953125 64.449219 91.460938 64.664062 90.882812 64.664062 C 90.328125 64.664062 89.863281 64.46875 89.488281 64.078125 C 89.117188 63.6875 88.929688 63.191406 88.929688 62.59375 C 88.929688 61.945312 89.125 61.414062 89.523438 60.988281 C 89.914062 60.5625 90.40625 60.351562 90.984375 60.351562 C 91.539062 60.351562 92.003906 60.546875 92.378906 60.933594 C 92.75 61.320312 92.9375 61.820312 92.9375 62.421875 Z M 92.070312 62.511719 C 92.070312 62.074219 91.957031 61.71875 91.734375 61.445312 C 91.507812 61.171875 91.230469 61.035156 90.898438 61.035156 C 90.59375 61.035156 90.335938 61.171875 90.117188 61.445312 C 89.90625 61.722656 89.796875 62.070312 89.796875 62.492188 C 89.796875 62.929688 89.910156 63.28125 90.136719 63.554688 C 90.363281 63.828125 90.640625 63.96875 90.96875 63.96875 C 91.273438 63.96875 91.53125 63.828125 91.75 63.554688 C 91.960938 63.277344 92.070312 62.929688 92.070312 62.511719 Z M 97.210938 64.546875 L 96.429688 64.546875 C 96.429688 64.460938 96.140625 64.007812 95.5625 63.183594 C 94.960938 62.316406 94.617188 61.722656 94.53125 61.40625 L 94.480469 61.40625 C 94.53125 61.863281 94.5625 62.28125 94.5625 62.652344 C 94.5625 63.171875 94.574219 63.804688 94.601562 64.546875 L 93.828125 64.546875 C 93.859375 63.898438 93.875 63.179688 93.875 62.402344 C 93.875 61.636719 93.859375 60.984375 93.828125 60.445312 L 94.765625 60.445312 C 94.765625 60.558594 95.023438 61 95.542969 61.78125 C 96.09375 62.601562 96.414062 63.164062 96.492188 63.460938 L 96.539062 63.460938 C 96.492188 62.992188 96.464844 62.570312 96.464844 62.195312 C 96.464844 61.628906 96.453125 61.046875 96.421875 60.445312 L 97.210938 60.445312 C 97.179688 60.96875 97.164062 61.617188 97.164062 62.402344 C 97.164062 63.191406 97.179688 63.90625 97.210938 64.546875 Z M 97.210938 64.546875 "/>
</g>
</svg>
