<?xml version="1.0" encoding="UTF-8"?>
<svg xmlns="http://www.w3.org/2000/svg" xmlns:xlink="http://www.w3.org/1999/xlink" width="300px" height="300px" viewBox="0 0 300 300" version="1.1">
<defs>
<clipPath id="clip1">
  <path d="M 22 120 L 57 120 L 57 186 L 22 186 Z M 22 120 "/>
</clipPath>
<clipPath id="clip2">
  <path d="M 65.015625 144.128906 L 51.488281 136.320312 C 51.488281 136.320312 26.84375 122.089844 25.394531 121.253906 C 23.945312 120.417969 22.5 120.921875 22.5 122.671875 L 22.5 184.050781 C 22.5 185.363281 23.535156 185.925781 24.792969 185.203125 C 26.050781 184.472656 51.488281 169.789062 51.488281 169.789062 L 65.011719 161.980469 C 65.011719 161.980469 76.492188 155.351562 78.015625 154.472656 C 79.542969 153.589844 79.394531 152.382812 78.109375 151.6875 C 76.820312 150.996094 65.015625 144.128906 65.015625 144.128906 Z M 65.015625 144.128906 "/>
</clipPath>
<linearGradient id="linear0" gradientUnits="userSpaceOnUse" x1="1451.479" y1="2452.512" x2="1451.479" y2="2339.209" gradientTransform="matrix(0.586533,0,0,-0.586533,-812.082696,1558.305447)">
<stop offset="0" style="stop-color:rgb(14.509804%,48.627451%,69.019608%);stop-opacity:1;"/>
<stop offset="0.286" style="stop-color:rgb(29.019608%,57.647059%,70.980392%);stop-opacity:1;"/>
<stop offset="0.767" style="stop-color:rgb(47.058824%,73.72549%,73.333333%);stop-opacity:1;"/>
<stop offset="1" style="stop-color:rgb(53.72549%,81.176471%,74.117647%);stop-opacity:1;"/>
</linearGradient>
<clipPath id="clip3">
  <path d="M 22 120 L 66 120 L 66 154 L 22 154 Z M 22 120 "/>
</clipPath>
<clipPath id="clip4">
  <path d="M 65.015625 144.128906 L 51.488281 136.320312 C 51.488281 136.320312 26.84375 122.089844 25.394531 121.253906 C 23.945312 120.417969 22.5 120.921875 22.5 122.671875 L 22.5 184.050781 C 22.5 185.363281 23.535156 185.925781 24.792969 185.203125 C 26.050781 184.472656 51.488281 169.789062 51.488281 169.789062 L 65.011719 161.980469 C 65.011719 161.980469 76.492188 155.351562 78.015625 154.472656 C 79.542969 153.589844 79.394531 152.382812 78.109375 151.6875 C 76.820312 150.996094 65.015625 144.128906 65.015625 144.128906 Z M 65.015625 144.128906 "/>
</clipPath>
<linearGradient id="linear1" gradientUnits="userSpaceOnUse" x1="1422.913" y1="2424.393" x2="1495.392" y2="2424.393" gradientTransform="matrix(0.586533,0,0,-0.586533,-812.082696,1558.305447)">
<stop offset="0" style="stop-color:rgb(32.156863%,75.686275%,67.843137%);stop-opacity:1;"/>
<stop offset="1" style="stop-color:rgb(87.058824%,90.980392%,60.392157%);stop-opacity:1;"/>
</linearGradient>
<clipPath id="clip5">
  <path d="M 22 153 L 66 153 L 66 186 L 22 186 Z M 22 153 "/>
</clipPath>
<clipPath id="clip6">
  <path d="M 65.015625 144.128906 L 51.488281 136.320312 C 51.488281 136.320312 26.84375 122.089844 25.394531 121.253906 C 23.945312 120.417969 22.5 120.921875 22.5 122.671875 L 22.5 184.050781 C 22.5 185.363281 23.535156 185.925781 24.792969 185.203125 C 26.050781 184.472656 51.488281 169.789062 51.488281 169.789062 L 65.011719 161.980469 C 65.011719 161.980469 76.492188 155.351562 78.015625 154.472656 C 79.542969 153.589844 79.394531 152.382812 78.109375 151.6875 C 76.820312 150.996094 65.015625 144.128906 65.015625 144.128906 Z M 65.015625 144.128906 "/>
</clipPath>
<linearGradient id="linear2" gradientUnits="userSpaceOnUse" x1="1459.151" y1="2395.86" x2="1459.151" y2="2338.797" gradientTransform="matrix(0.586533,0,0,-0.586533,-812.082696,1558.305447)">
<stop offset="0" style="stop-color:rgb(92.54902%,25.490196%,23.921569%);stop-opacity:1;"/>
<stop offset="0.167" style="stop-color:rgb(85.490196%,26.666667%,32.156863%);stop-opacity:1;"/>
<stop offset="0.575" style="stop-color:rgb(69.019608%,28.235294%,47.843137%);stop-opacity:1;"/>
<stop offset="0.862" style="stop-color:rgb(58.431373%,29.019608%,57.254902%);stop-opacity:1;"/>
<stop offset="1" style="stop-color:rgb(54.117647%,29.019608%,61.568627%);stop-opacity:1;"/>
</linearGradient>
<clipPath id="clip7">
  <path d="M 56 144 L 80 144 L 80 162 L 56 162 Z M 56 144 "/>
</clipPath>
<clipPath id="clip8">
  <path d="M 65.015625 144.128906 L 51.488281 136.320312 C 51.488281 136.320312 26.84375 122.089844 25.394531 121.253906 C 23.945312 120.417969 22.5 120.921875 22.5 122.671875 L 22.5 184.050781 C 22.5 185.363281 23.535156 185.925781 24.792969 185.203125 C 26.050781 184.472656 51.488281 169.789062 51.488281 169.789062 L 65.011719 161.980469 C 65.011719 161.980469 76.492188 155.351562 78.015625 154.472656 C 79.542969 153.589844 79.394531 152.382812 78.109375 151.6875 C 76.820312 150.996094 65.015625 144.128906 65.015625 144.128906 Z M 65.015625 144.128906 "/>
</clipPath>
<linearGradient id="linear3" gradientUnits="userSpaceOnUse" x1="1500.897" y1="2411.077" x2="1500.897" y2="2380.646" gradientTransform="matrix(0.586533,0,0,-0.586533,-812.082696,1558.305447)">
<stop offset="0" style="stop-color:rgb(96.078431%,53.333333%,47.45098%);stop-opacity:1;"/>
<stop offset="0.119" style="stop-color:rgb(96.470588%,56.470588%,47.45098%);stop-opacity:1;"/>
<stop offset="0.713" style="stop-color:rgb(98.823529%,72.156863%,46.666667%);stop-opacity:1;"/>
<stop offset="1" style="stop-color:rgb(99.607843%,78.431373%,45.490196%);stop-opacity:1;"/>
</linearGradient>
</defs>
<g id="surface1">
<path style=" stroke:none;fill-rule:nonzero;fill:rgb(0%,0%,0%);fill-opacity:1;" d="M 300 185.804688 C 300 193.128906 294.0625 199.066406 286.742188 199.066406 L 13.261719 199.066406 C 5.9375 199.066406 0 193.128906 0 185.804688 L 0 114.195312 C 0 106.871094 5.9375 100.933594 13.261719 100.933594 L 286.742188 100.933594 C 294.0625 100.933594 300 106.871094 300 114.195312 Z M 300 185.804688 "/>
<g clip-path="url(#clip1)" clip-rule="nonzero">
<g clip-path="url(#clip2)" clip-rule="nonzero">
<path style=" stroke:none;fill-rule:nonzero;fill:url(#linear0);" d="M 22.503906 119.824219 L 22.503906 186.28125 L 56.011719 153.054688 Z M 22.503906 119.824219 "/>
</g>
</g>
<g clip-path="url(#clip3)" clip-rule="nonzero">
<g clip-path="url(#clip4)" clip-rule="nonzero">
<path style=" stroke:none;fill-rule:nonzero;fill:url(#linear1);" d="M 65.015625 144.128906 L 51.488281 136.320312 L 22.503906 119.585938 L 22.503906 119.824219 L 56.011719 153.054688 Z M 65.015625 144.128906 "/>
</g>
</g>
<g clip-path="url(#clip5)" clip-rule="nonzero">
<g clip-path="url(#clip6)" clip-rule="nonzero">
<path style=" stroke:none;fill-rule:nonzero;fill:url(#linear2);" d="M 22.503906 186.28125 L 22.503906 186.523438 L 51.488281 169.789062 L 65.011719 161.976562 L 56.011719 153.054688 Z M 22.503906 186.28125 "/>
</g>
</g>
<g clip-path="url(#clip7)" clip-rule="nonzero">
<g clip-path="url(#clip8)" clip-rule="nonzero">
<path style=" stroke:none;fill-rule:nonzero;fill:url(#linear3);" d="M 65.015625 144.128906 L 56.011719 153.054688 L 65.011719 161.976562 L 80.472656 153.054688 Z M 65.015625 144.128906 "/>
</g>
</g>
<path style=" stroke:none;fill-rule:nonzero;fill:rgb(97.647059%,97.647059%,97.647059%);fill-opacity:1;" d="M 233.472656 166.042969 C 232.214844 166.042969 231.066406 165.8125 230.027344 165.347656 C 228.988281 164.882812 228.113281 164.167969 227.40625 163.207031 L 227.195312 163.207031 C 227.335938 164.335938 227.40625 165.40625 227.40625 166.414062 L 227.40625 174.367188 L 224.480469 174.367188 L 224.480469 146.367188 L 226.863281 146.367188 L 227.265625 149.011719 L 227.40625 149.011719 C 228.160156 147.953125 229.035156 147.1875 230.035156 146.71875 C 231.035156 146.246094 232.179688 146.011719 233.472656 146.011719 C 236.035156 146.011719 238.015625 146.890625 239.40625 148.640625 C 240.800781 150.390625 241.496094 152.847656 241.496094 156.011719 C 241.496094 159.183594 240.789062 161.648438 239.375 163.410156 C 237.957031 165.167969 235.992188 166.042969 233.472656 166.042969 Z M 233.050781 148.5 C 231.074219 148.5 229.648438 149.046875 228.765625 150.140625 C 227.882812 151.230469 227.433594 152.972656 227.40625 155.359375 L 227.40625 156.011719 C 227.40625 158.726562 227.859375 160.667969 228.765625 161.839844 C 229.671875 163.011719 231.125 163.59375 233.121094 163.59375 C 234.792969 163.59375 236.097656 162.917969 237.046875 161.566406 C 237.992188 160.214844 238.464844 158.351562 238.464844 155.976562 C 238.464844 153.566406 237.992188 151.71875 237.046875 150.429688 C 236.101562 149.140625 234.765625 148.5 233.050781 148.5 Z M 248.273438 165.691406 L 245.347656 165.691406 L 245.347656 138.253906 L 248.273438 138.253906 Z M 265.105469 165.691406 L 264.523438 162.941406 L 264.382812 162.941406 C 263.417969 164.152344 262.457031 164.972656 261.5 165.402344 C 260.539062 165.832031 259.34375 166.042969 257.910156 166.042969 C 255.996094 166.042969 254.492188 165.550781 253.40625 164.5625 C 252.316406 163.578125 251.773438 162.171875 251.773438 160.347656 C 251.773438 156.445312 254.894531 154.402344 261.136719 154.210938 L 264.417969 154.105469 L 264.417969 152.90625 C 264.417969 151.390625 264.089844 150.269531 263.4375 149.546875 C 262.785156 148.824219 261.742188 148.464844 260.308594 148.464844 C 258.699219 148.464844 256.875 148.957031 254.84375 149.945312 L 253.941406 147.703125 C 254.894531 147.1875 255.9375 146.78125 257.074219 146.488281 C 258.207031 146.195312 259.34375 146.046875 260.484375 146.046875 C 262.789062 146.046875 264.496094 146.558594 265.609375 147.582031 C 266.71875 148.605469 267.273438 150.242188 267.273438 152.5 L 267.273438 165.691406 Z M 258.492188 163.628906 C 260.3125 163.628906 261.746094 163.128906 262.785156 162.128906 C 263.824219 161.132812 264.347656 159.730469 264.347656 157.933594 L 264.347656 156.1875 L 261.417969 156.308594 C 259.089844 156.394531 257.414062 156.753906 256.382812 157.394531 C 255.355469 158.035156 254.839844 159.035156 254.839844 160.386719 C 254.839844 161.441406 255.160156 162.25 255.800781 162.800781 C 256.445312 163.351562 257.339844 163.628906 258.492188 163.628906 Z M 268.972656 146.367188 L 272.109375 146.367188 L 276.34375 157.386719 C 277.273438 159.902344 277.847656 161.71875 278.074219 162.835938 L 278.214844 162.835938 C 278.367188 162.234375 278.6875 161.210938 279.175781 159.757812 C 279.660156 158.304688 281.257812 153.84375 283.960938 146.367188 L 287.101562 146.367188 L 278.796875 168.371094 C 277.972656 170.546875 277.011719 172.089844 275.910156 173.003906 C 274.8125 173.914062 273.460938 174.367188 271.867188 174.367188 C 270.972656 174.367188 270.089844 174.269531 269.21875 174.070312 L 269.21875 171.722656 C 269.867188 171.863281 270.589844 171.9375 271.390625 171.9375 C 273.398438 171.9375 274.832031 170.808594 275.691406 168.550781 L 276.765625 165.800781 Z M 179.25 148.160156 C 180.179688 148.929688 182.117188 150.546875 182.117188 153.621094 C 182.117188 156.609375 180.421875 158.027344 178.722656 159.359375 C 178.199219 159.882812 177.589844 160.453125 177.589844 161.34375 C 177.589844 162.230469 178.195312 162.714844 178.644531 163.078125 L 180.097656 164.207031 C 181.878906 165.703125 183.492188 167.082031 183.492188 169.871094 C 183.492188 173.671875 179.8125 177.507812 172.863281 177.507812 C 167 177.507812 164.171875 174.71875 164.171875 171.726562 C 164.171875 170.273438 164.894531 168.210938 167.285156 166.796875 C 169.789062 165.261719 173.1875 165.058594 175.003906 164.9375 C 174.4375 164.207031 173.792969 163.441406 173.792969 162.1875 C 173.792969 161.503906 173.996094 161.097656 174.195312 160.609375 C 173.75 160.652344 173.304688 160.691406 172.902344 160.691406 C 168.617188 160.691406 166.191406 157.5 166.191406 154.347656 C 166.191406 152.488281 167.042969 150.425781 168.777344 148.929688 C 171.082031 147.03125 173.832031 146.707031 176.015625 146.707031 L 184.34375 146.707031 L 181.753906 148.160156 Z M 176.378906 166.109375 C 176.054688 166.066406 175.851562 166.066406 175.449219 166.066406 C 175.085938 166.066406 172.902344 166.152344 171.203125 166.71875 C 170.316406 167.039062 167.726562 168.007812 167.726562 170.878906 C 167.726562 173.75 170.519531 175.8125 174.84375 175.8125 C 178.722656 175.8125 180.785156 173.949219 180.785156 171.445312 C 180.785156 169.382812 179.453125 168.292969 176.378906 166.109375 Z M 177.550781 158.429688 C 178.480469 157.496094 178.558594 156.207031 178.558594 155.476562 C 178.558594 152.566406 176.824219 148.039062 173.46875 148.039062 C 172.417969 148.039062 171.285156 148.566406 170.636719 149.375 C 169.953125 150.222656 169.746094 151.3125 169.746094 152.367188 C 169.746094 155.074219 171.324219 159.5625 174.800781 159.5625 C 175.8125 159.5625 176.902344 159.074219 177.550781 158.429688 Z M 153.800781 165.464844 C 147.382812 165.464844 143.953125 160.457031 143.953125 155.9375 C 143.953125 150.648438 148.273438 146.132812 154.410156 146.132812 C 160.339844 146.132812 164.050781 150.769531 164.050781 155.65625 C 164.050781 160.417969 160.382812 165.464844 153.800781 165.464844 Z M 158.84375 162.195312 C 159.816406 160.902344 160.058594 159.289062 160.058594 157.714844 C 160.058594 154.160156 158.363281 147.382812 153.355469 147.382812 C 152.027344 147.382812 150.695312 147.90625 149.726562 148.757812 C 148.152344 150.167969 147.867188 151.941406 147.867188 153.679688 C 147.867188 157.671875 149.847656 164.25 154.730469 164.25 C 156.304688 164.25 157.917969 163.484375 158.84375 162.195312 Z M 131.925781 165.464844 C 125.507812 165.464844 122.078125 160.457031 122.078125 155.9375 C 122.078125 150.648438 126.398438 146.132812 132.53125 146.132812 C 138.464844 146.132812 142.175781 150.769531 142.175781 155.65625 C 142.175781 160.417969 138.503906 165.464844 131.925781 165.464844 Z M 136.972656 162.195312 C 137.941406 160.902344 138.183594 159.289062 138.183594 157.714844 C 138.183594 154.160156 136.484375 147.382812 131.480469 147.382812 C 130.152344 147.382812 128.816406 147.90625 127.851562 148.757812 C 126.277344 150.167969 125.992188 151.941406 125.992188 153.679688 C 125.992188 157.671875 127.96875 164.25 132.855469 164.25 C 134.429688 164.25 136.042969 163.484375 136.972656 162.195312 Z M 118.996094 164.832031 L 113.191406 166.167969 C 110.835938 166.535156 108.726562 166.859375 106.496094 166.859375 C 95.296875 166.859375 91.039062 158.621094 91.039062 152.167969 C 91.039062 144.296875 97.082031 136.996094 107.429688 136.996094 C 109.621094 136.996094 111.730469 137.320312 113.636719 137.847656 C 116.679688 138.699219 118.101562 139.753906 118.992188 140.363281 L 115.625 143.570312 L 114.207031 143.890625 L 115.21875 142.269531 C 113.839844 140.929688 111.324219 138.457031 106.535156 138.457031 C 100.125 138.457031 95.296875 143.328125 95.296875 150.425781 C 95.296875 158.054688 100.816406 165.234375 109.660156 165.234375 C 112.257812 165.234375 113.59375 164.707031 114.8125 164.21875 L 114.8125 157.691406 L 108.6875 158.015625 L 111.929688 156.265625 L 120.535156 156.265625 L 119.480469 157.28125 C 119.195312 157.527344 119.15625 157.609375 119.074219 157.929688 C 119.03125 158.296875 118.992188 159.472656 118.992188 159.878906 L 118.992188 164.832031 Z M 118.996094 164.832031 "/>
<path style=" stroke:none;fill-rule:nonzero;fill:rgb(97.647059%,97.647059%,97.647059%);fill-opacity:1;" d="M 192.074219 163.664062 C 190.734375 163.539062 190.453125 163.296875 190.453125 161.714844 L 190.453125 138.75 C 190.460938 138.660156 190.46875 138.570312 190.476562 138.488281 C 190.640625 137.066406 191.046875 136.824219 192.304688 136.09375 L 186.5 136.09375 L 183.457031 137.554688 L 186.558594 137.554688 L 186.558594 137.570312 L 186.554688 137.558594 L 186.554688 162.609375 C 186.554688 163.417969 186.394531 163.539062 185.460938 164.757812 L 192.644531 164.757812 L 194.144531 163.867188 C 193.457031 163.78125 192.765625 163.742188 192.074219 163.664062 Z M 208.585938 164.035156 C 208.144531 164.277344 207.699219 164.5625 207.257812 164.761719 C 205.925781 165.363281 204.558594 165.527344 203.34375 165.527344 C 202.058594 165.527344 200.042969 165.445312 197.984375 163.953125 C 195.128906 161.9375 193.878906 158.472656 193.878906 155.453125 C 193.878906 149.207031 198.953125 146.144531 203.105469 146.144531 C 204.554688 146.144531 206.050781 146.507812 207.257812 147.273438 C 209.269531 148.601562 209.792969 150.332031 210.074219 151.261719 L 200.609375 155.089844 L 197.503906 155.332031 C 198.511719 160.449219 201.976562 163.429688 205.804688 163.429688 C 207.859375 163.429688 209.351562 162.703125 210.722656 162.019531 Z M 204.796875 152.023438 C 205.5625 151.746094 205.964844 151.5 205.964844 150.9375 C 205.964844 149.328125 204.152344 147.472656 201.976562 147.472656 C 200.363281 147.472656 197.34375 148.722656 197.34375 153.074219 C 197.34375 153.757812 197.421875 154.484375 197.464844 155.210938 Z M 212.472656 146.417969 L 212.472656 149.078125 L 212.152344 149.078125 L 212.152344 146.417969 L 211.273438 146.417969 L 211.273438 146.144531 L 213.355469 146.144531 L 213.355469 146.417969 Z M 216.097656 149.078125 L 216.097656 146.394531 L 216.085938 146.394531 L 215.265625 149.078125 L 215.011719 149.078125 L 214.1875 146.394531 L 214.175781 146.394531 L 214.175781 149.078125 L 213.882812 149.078125 L 213.882812 146.144531 L 214.386719 146.144531 L 215.132812 148.515625 L 215.144531 148.515625 L 215.878906 146.144531 L 216.390625 146.144531 L 216.390625 149.078125 Z M 216.097656 149.078125 "/>
<path style=" stroke:none;fill-rule:nonzero;fill:rgb(97.647059%,97.647059%,98.039216%);fill-opacity:1;" d="M 99.097656 129.09375 L 97.082031 129.09375 C 97.082031 128.816406 96.890625 128.03125 96.507812 126.738281 L 93.597656 126.738281 C 93.203125 128.011719 93.003906 128.796875 93.003906 129.09375 L 91.105469 129.09375 C 91.105469 128.933594 91.597656 127.585938 92.578125 125.0625 C 93.558594 122.539062 94.050781 121.148438 94.050781 120.890625 L 96.429688 120.890625 C 96.429688 121.132812 96.875 122.5 97.765625 125.003906 C 98.652344 127.503906 99.097656 128.867188 99.097656 129.09375 Z M 96.1875 125.535156 C 95.46875 123.367188 95.109375 122.195312 95.109375 122.019531 L 95.007812 122.019531 C 95.007812 122.183594 94.636719 123.355469 93.894531 125.535156 Z M 107.222656 129.09375 L 105.664062 129.09375 C 105.664062 128.921875 105.089844 128.015625 103.933594 126.367188 C 102.722656 124.632812 102.035156 123.445312 101.867188 122.808594 L 101.765625 122.808594 C 101.871094 123.726562 101.921875 124.558594 101.921875 125.304688 C 101.921875 126.339844 101.953125 127.605469 102.011719 129.097656 L 100.460938 129.097656 C 100.523438 127.792969 100.554688 126.363281 100.554688 124.804688 C 100.554688 123.273438 100.523438 121.96875 100.460938 120.894531 L 102.332031 120.894531 C 102.332031 121.117188 102.851562 122.003906 103.886719 123.558594 C 104.992188 125.207031 105.628906 126.328125 105.792969 126.917969 L 105.886719 126.917969 C 105.785156 125.980469 105.734375 125.140625 105.734375 124.394531 C 105.734375 123.257812 105.703125 122.089844 105.644531 120.894531 L 107.222656 120.894531 C 107.164062 121.933594 107.132812 123.238281 107.132812 124.804688 C 107.132812 126.382812 107.164062 127.8125 107.222656 129.09375 Z M 116.351562 124.710938 C 116.351562 125.902344 115.972656 126.945312 115.207031 127.835938 C 114.441406 128.726562 113.371094 129.171875 111.992188 129.171875 C 111.371094 129.171875 110.515625 129.144531 109.421875 129.09375 C 109.476562 127.828125 109.503906 126.394531 109.503906 124.804688 C 109.503906 123.277344 109.476562 121.972656 109.421875 120.890625 L 110.523438 120.890625 C 110.707031 120.890625 110.972656 120.886719 111.332031 120.871094 C 111.6875 120.859375 111.921875 120.855469 112.03125 120.855469 C 113.546875 120.855469 114.644531 121.230469 115.328125 121.988281 C 116.011719 122.746094 116.351562 123.652344 116.351562 124.710938 Z M 114.632812 124.980469 C 114.632812 124.175781 114.398438 123.496094 113.929688 122.941406 C 113.457031 122.390625 112.738281 122.113281 111.773438 122.113281 C 111.59375 122.113281 111.34375 122.132812 111.03125 122.171875 C 111.070312 123.011719 111.09375 123.890625 111.09375 124.804688 C 111.09375 125.808594 111.113281 126.804688 111.15625 127.789062 C 111.425781 127.84375 111.699219 127.871094 111.972656 127.875 C 112.878906 127.875 113.546875 127.59375 113.980469 127.03125 C 114.414062 126.472656 114.632812 125.789062 114.632812 124.980469 Z M 124.773438 129.09375 L 122.910156 129.09375 C 122.421875 127.609375 122.046875 126.691406 121.789062 126.34375 C 121.527344 125.992188 121.105469 125.820312 120.527344 125.820312 C 120.285156 125.820312 120.050781 125.820312 119.828125 125.824219 C 119.828125 126.90625 119.847656 127.996094 119.886719 129.09375 L 118.132812 129.09375 C 118.1875 127.828125 118.214844 126.394531 118.214844 124.804688 C 118.214844 123.277344 118.1875 121.972656 118.132812 120.890625 L 119.222656 120.890625 C 119.351562 120.890625 119.613281 120.886719 120.015625 120.875 C 120.414062 120.859375 120.785156 120.855469 121.125 120.855469 C 123.054688 120.855469 124.019531 121.515625 124.019531 122.832031 C 124.019531 123.878906 123.46875 124.605469 122.367188 125.019531 L 122.367188 125.113281 C 122.792969 125.230469 123.164062 125.5625 123.484375 126.105469 C 123.800781 126.648438 124.230469 127.644531 124.773438 129.09375 Z M 122.410156 123.296875 C 122.410156 122.460938 121.875 122.042969 120.800781 122.042969 C 120.402344 122.042969 120.054688 122.074219 119.753906 122.132812 C 119.800781 122.785156 119.820312 123.632812 119.820312 124.679688 C 120.054688 124.6875 120.25 124.691406 120.410156 124.691406 C 121.742188 124.691406 122.410156 124.226562 122.410156 123.296875 Z M 133.804688 124.84375 C 133.804688 126.132812 133.410156 127.199219 132.621094 128.050781 C 131.832031 128.898438 130.855469 129.324219 129.691406 129.324219 C 128.582031 129.324219 127.652344 128.933594 126.90625 128.152344 C 126.160156 127.375 125.785156 126.382812 125.785156 125.183594 C 125.785156 123.894531 126.179688 122.824219 126.96875 121.976562 C 127.757812 121.128906 128.734375 120.703125 129.898438 120.703125 C 131.007812 120.703125 131.9375 121.089844 132.683594 121.867188 C 133.433594 122.644531 133.804688 123.636719 133.804688 124.84375 Z M 132.066406 125.023438 C 132.066406 124.148438 131.84375 123.433594 131.394531 122.890625 C 130.945312 122.34375 130.390625 122.070312 129.730469 122.070312 C 129.117188 122.070312 128.59375 122.34375 128.167969 122.894531 C 127.738281 123.445312 127.523438 124.140625 127.523438 124.980469 C 127.523438 125.855469 127.75 126.566406 128.203125 127.113281 C 128.652344 127.660156 129.207031 127.9375 129.863281 127.9375 C 130.476562 127.9375 130.996094 127.660156 131.425781 127.105469 C 131.851562 126.554688 132.066406 125.859375 132.066406 125.023438 Z M 137.367188 129.09375 L 135.585938 129.09375 C 135.640625 127.792969 135.667969 126.363281 135.667969 124.804688 C 135.667969 123.273438 135.640625 121.96875 135.585938 120.890625 L 137.367188 120.890625 C 137.3125 121.949219 137.285156 123.253906 137.285156 124.804688 C 137.285156 126.386719 137.3125 127.820312 137.367188 129.09375 Z M 146.5 124.710938 C 146.5 125.902344 146.117188 126.945312 145.355469 127.835938 C 144.589844 128.726562 143.519531 129.171875 142.140625 129.171875 C 141.519531 129.171875 140.660156 129.144531 139.570312 129.09375 C 139.625 127.828125 139.652344 126.394531 139.652344 124.804688 C 139.652344 123.277344 139.625 121.972656 139.570312 120.890625 L 140.671875 120.890625 C 140.851562 120.890625 141.121094 120.886719 141.480469 120.871094 C 141.835938 120.859375 142.070312 120.855469 142.179688 120.855469 C 143.695312 120.855469 144.792969 121.230469 145.476562 121.988281 C 146.160156 122.746094 146.5 123.652344 146.5 124.710938 Z M 144.78125 124.980469 C 144.78125 124.175781 144.546875 123.496094 144.074219 122.941406 C 143.605469 122.390625 142.886719 122.113281 141.921875 122.113281 C 141.738281 122.113281 141.492188 122.132812 141.175781 122.171875 C 141.21875 123.011719 141.238281 123.890625 141.238281 124.804688 C 141.238281 125.808594 141.261719 126.804688 141.300781 127.789062 C 141.570312 127.84375 141.847656 127.871094 142.121094 127.875 C 143.023438 127.875 143.691406 127.59375 144.128906 127.03125 C 144.5625 126.472656 144.78125 125.789062 144.78125 124.980469 Z M 158.617188 129.09375 L 156.601562 129.09375 C 156.601562 128.816406 156.410156 128.03125 156.027344 126.738281 L 153.113281 126.738281 C 152.71875 128.011719 152.523438 128.796875 152.523438 129.09375 L 150.625 129.09375 C 150.625 128.933594 151.117188 127.585938 152.097656 125.0625 C 153.078125 122.539062 153.570312 121.148438 153.570312 120.890625 L 155.949219 120.890625 C 155.949219 121.132812 156.394531 122.5 157.28125 125.003906 C 158.171875 127.503906 158.617188 128.867188 158.617188 129.09375 Z M 155.707031 125.535156 C 154.988281 123.367188 154.628906 122.195312 154.628906 122.019531 L 154.527344 122.019531 C 154.527344 122.183594 154.15625 123.355469 153.410156 125.535156 Z M 165.964844 123.039062 C 165.964844 124.042969 165.59375 124.785156 164.847656 125.265625 C 164.101562 125.742188 163.1875 125.984375 162.101562 125.984375 C 161.90625 125.984375 161.765625 125.980469 161.679688 125.96875 C 161.679688 126.761719 161.703125 127.800781 161.75 129.09375 L 159.980469 129.09375 C 160.035156 127.882812 160.0625 126.453125 160.0625 124.804688 C 160.0625 123.292969 160.035156 121.988281 159.980469 120.890625 L 161.074219 120.890625 C 161.230469 120.890625 161.527344 120.886719 161.96875 120.875 C 162.410156 120.859375 162.792969 120.855469 163.117188 120.855469 C 163.914062 120.855469 164.589844 121.035156 165.140625 121.398438 C 165.6875 121.757812 165.964844 122.304688 165.964844 123.039062 Z M 164.339844 123.386719 C 164.339844 122.488281 163.742188 122.039062 162.550781 122.039062 C 162.253906 122.039062 161.9375 122.070312 161.605469 122.132812 C 161.652344 122.925781 161.675781 123.824219 161.675781 124.828125 C 161.78125 124.839844 161.902344 124.84375 162.039062 124.84375 C 163.574219 124.84375 164.339844 124.359375 164.339844 123.386719 Z M 173.523438 123.039062 C 173.523438 124.042969 173.148438 124.785156 172.40625 125.265625 C 171.660156 125.742188 170.742188 125.984375 169.660156 125.984375 C 169.460938 125.984375 169.320312 125.980469 169.238281 125.96875 C 169.238281 126.761719 169.261719 127.800781 169.308594 129.09375 L 167.535156 129.09375 C 167.589844 127.882812 167.617188 126.453125 167.617188 124.804688 C 167.617188 123.292969 167.589844 121.988281 167.535156 120.890625 L 168.632812 120.890625 C 168.789062 120.890625 169.085938 120.886719 169.527344 120.875 C 169.96875 120.859375 170.351562 120.855469 170.671875 120.855469 C 171.472656 120.855469 172.144531 121.035156 172.695312 121.398438 C 173.246094 121.757812 173.523438 122.304688 173.523438 123.039062 Z M 171.898438 123.386719 C 171.898438 122.488281 171.300781 122.039062 170.109375 122.039062 C 169.808594 122.039062 169.492188 122.070312 169.164062 122.132812 C 169.207031 122.925781 169.230469 123.824219 169.230469 124.828125 C 169.335938 124.839844 169.457031 124.84375 169.597656 124.84375 C 171.128906 124.84375 171.898438 124.359375 171.898438 123.386719 Z M 185.878906 124.84375 C 185.878906 126.132812 185.484375 127.199219 184.691406 128.050781 C 183.902344 128.898438 182.925781 129.324219 181.761719 129.324219 C 180.652344 129.324219 179.726562 128.933594 178.976562 128.152344 C 178.230469 127.375 177.855469 126.382812 177.855469 125.183594 C 177.855469 123.894531 178.25 122.824219 179.042969 121.976562 C 179.832031 121.128906 180.808594 120.703125 181.972656 120.703125 C 183.082031 120.703125 184.007812 121.089844 184.757812 121.867188 C 185.503906 122.644531 185.878906 123.636719 185.878906 124.84375 Z M 184.136719 125.023438 C 184.136719 124.148438 183.914062 123.433594 183.464844 122.890625 C 183.015625 122.34375 182.460938 122.070312 181.800781 122.070312 C 181.1875 122.070312 180.667969 122.34375 180.238281 122.894531 C 179.808594 123.445312 179.597656 124.140625 179.597656 124.980469 C 179.597656 125.855469 179.820312 126.566406 180.273438 127.113281 C 180.726562 127.660156 181.277344 127.9375 181.933594 127.9375 C 182.546875 127.9375 183.066406 127.660156 183.496094 127.105469 C 183.925781 126.554688 184.136719 125.859375 184.136719 125.023438 Z M 194.417969 129.09375 L 192.863281 129.09375 C 192.863281 128.921875 192.285156 128.015625 191.128906 126.367188 C 189.917969 124.632812 189.230469 123.445312 189.0625 122.808594 L 188.960938 122.808594 C 189.066406 123.726562 189.121094 124.558594 189.121094 125.304688 C 189.121094 126.339844 189.148438 127.605469 189.207031 129.097656 L 187.65625 129.097656 C 187.71875 127.792969 187.75 126.363281 187.75 124.804688 C 187.75 123.273438 187.71875 121.96875 187.65625 120.894531 L 189.527344 120.894531 C 189.527344 121.117188 190.046875 122.003906 191.085938 123.558594 C 192.1875 125.207031 192.824219 126.328125 192.988281 126.917969 L 193.082031 126.917969 C 192.980469 125.980469 192.929688 125.140625 192.929688 124.394531 C 192.929688 123.257812 192.902344 122.089844 192.84375 120.894531 L 194.417969 120.894531 C 194.359375 121.933594 194.328125 123.238281 194.328125 124.804688 C 194.328125 126.382812 194.359375 127.8125 194.417969 129.09375 Z M 194.417969 129.09375 "/>
</g>
</svg>
