<?xml version="1.0" encoding="UTF-8"?>
<svg xmlns="http://www.w3.org/2000/svg" xmlns:xlink="http://www.w3.org/1999/xlink" width="10px" height="10px" viewBox="0 0 10 10" version="1.1">
<defs>
<clipPath id="clip1">
  <path d="M 0 4 L 2 4 L 2 7 L 0 7 Z M 0 4 "/>
</clipPath>
<clipPath id="clip2">
  <path d="M 2.167969 4.804688 L 1.714844 4.542969 C 1.714844 4.542969 0.894531 4.070312 0.847656 4.042969 C 0.796875 4.015625 0.75 4.03125 0.75 4.089844 L 0.75 6.136719 C 0.75 6.179688 0.785156 6.199219 0.828125 6.171875 C 0.867188 6.148438 1.714844 5.660156 1.714844 5.660156 L 2.167969 5.398438 C 2.167969 5.398438 2.550781 5.179688 2.601562 5.148438 C 2.652344 5.121094 2.648438 5.078125 2.605469 5.054688 C 2.5625 5.03125 2.167969 4.804688 2.167969 4.804688 Z M 2.167969 4.804688 "/>
</clipPath>
<linearGradient id="linear0" gradientUnits="userSpaceOnUse" x1="1451.479" y1="2452.512" x2="1451.479" y2="2339.209" gradientTransform="matrix(0.0195511,0,0,-0.0195511,-27.069423,51.943515)">
<stop offset="0" style="stop-color:rgb(14.509804%,48.627451%,69.019608%);stop-opacity:1;"/>
<stop offset="0.286" style="stop-color:rgb(29.019608%,57.647059%,70.980392%);stop-opacity:1;"/>
<stop offset="0.767" style="stop-color:rgb(47.058824%,73.72549%,73.333333%);stop-opacity:1;"/>
<stop offset="1" style="stop-color:rgb(53.72549%,81.176471%,74.117647%);stop-opacity:1;"/>
</linearGradient>
<clipPath id="clip3">
  <path d="M 0 4 L 3 4 L 3 6 L 0 6 Z M 0 4 "/>
</clipPath>
<clipPath id="clip4">
  <path d="M 2.167969 4.804688 L 1.714844 4.542969 C 1.714844 4.542969 0.894531 4.070312 0.847656 4.042969 C 0.796875 4.015625 0.75 4.03125 0.75 4.089844 L 0.75 6.136719 C 0.75 6.179688 0.785156 6.199219 0.828125 6.171875 C 0.867188 6.148438 1.714844 5.660156 1.714844 5.660156 L 2.167969 5.398438 C 2.167969 5.398438 2.550781 5.179688 2.601562 5.148438 C 2.652344 5.121094 2.648438 5.078125 2.605469 5.054688 C 2.5625 5.03125 2.167969 4.804688 2.167969 4.804688 Z M 2.167969 4.804688 "/>
</clipPath>
<linearGradient id="linear1" gradientUnits="userSpaceOnUse" x1="1422.913" y1="2424.393" x2="1495.392" y2="2424.393" gradientTransform="matrix(0.0195511,0,0,-0.0195511,-27.069423,51.943515)">
<stop offset="0" style="stop-color:rgb(32.156863%,75.686275%,67.843137%);stop-opacity:1;"/>
<stop offset="1" style="stop-color:rgb(87.058824%,90.980392%,60.392157%);stop-opacity:1;"/>
</linearGradient>
<clipPath id="clip5">
  <path d="M 0 5 L 3 5 L 3 7 L 0 7 Z M 0 5 "/>
</clipPath>
<clipPath id="clip6">
  <path d="M 2.167969 4.804688 L 1.714844 4.542969 C 1.714844 4.542969 0.894531 4.070312 0.847656 4.042969 C 0.796875 4.015625 0.75 4.03125 0.75 4.089844 L 0.75 6.136719 C 0.75 6.179688 0.785156 6.199219 0.828125 6.171875 C 0.867188 6.148438 1.714844 5.660156 1.714844 5.660156 L 2.167969 5.398438 C 2.167969 5.398438 2.550781 5.179688 2.601562 5.148438 C 2.652344 5.121094 2.648438 5.078125 2.605469 5.054688 C 2.5625 5.03125 2.167969 4.804688 2.167969 4.804688 Z M 2.167969 4.804688 "/>
</clipPath>
<linearGradient id="linear2" gradientUnits="userSpaceOnUse" x1="1459.151" y1="2395.86" x2="1459.151" y2="2338.797" gradientTransform="matrix(0.0195511,0,0,-0.0195511,-27.069423,51.943515)">
<stop offset="0" style="stop-color:rgb(92.54902%,25.490196%,23.921569%);stop-opacity:1;"/>
<stop offset="0.167" style="stop-color:rgb(85.490196%,26.666667%,32.156863%);stop-opacity:1;"/>
<stop offset="0.575" style="stop-color:rgb(69.019608%,28.235294%,47.843137%);stop-opacity:1;"/>
<stop offset="0.862" style="stop-color:rgb(58.431373%,29.019608%,57.254902%);stop-opacity:1;"/>
<stop offset="1" style="stop-color:rgb(54.117647%,29.019608%,61.568627%);stop-opacity:1;"/>
</linearGradient>
<clipPath id="clip7">
  <path d="M 1 4 L 3 4 L 3 6 L 1 6 Z M 1 4 "/>
</clipPath>
<clipPath id="clip8">
  <path d="M 2.167969 4.804688 L 1.714844 4.542969 C 1.714844 4.542969 0.894531 4.070312 0.847656 4.042969 C 0.796875 4.015625 0.75 4.03125 0.75 4.089844 L 0.75 6.136719 C 0.75 6.179688 0.785156 6.199219 0.828125 6.171875 C 0.867188 6.148438 1.714844 5.660156 1.714844 5.660156 L 2.167969 5.398438 C 2.167969 5.398438 2.550781 5.179688 2.601562 5.148438 C 2.652344 5.121094 2.648438 5.078125 2.605469 5.054688 C 2.5625 5.03125 2.167969 4.804688 2.167969 4.804688 Z M 2.167969 4.804688 "/>
</clipPath>
<linearGradient id="linear3" gradientUnits="userSpaceOnUse" x1="1500.897" y1="2411.077" x2="1500.897" y2="2380.646" gradientTransform="matrix(0.0195511,0,0,-0.0195511,-27.069423,51.943515)">
<stop offset="0" style="stop-color:rgb(96.078431%,53.333333%,47.45098%);stop-opacity:1;"/>
<stop offset="0.119" style="stop-color:rgb(96.470588%,56.470588%,47.45098%);stop-opacity:1;"/>
<stop offset="0.713" style="stop-color:rgb(98.823529%,72.156863%,46.666667%);stop-opacity:1;"/>
<stop offset="1" style="stop-color:rgb(99.607843%,78.431373%,45.490196%);stop-opacity:1;"/>
</linearGradient>
</defs>
<g id="surface1">
<path style=" stroke:none;fill-rule:nonzero;fill:rgb(0%,0%,0%);fill-opacity:1;" d="M 10 6.195312 C 10 6.4375 9.800781 6.636719 9.558594 6.636719 L 0.441406 6.636719 C 0.199219 6.636719 0 6.4375 0 6.195312 L 0 3.804688 C 0 3.5625 0.199219 3.363281 0.441406 3.363281 L 9.558594 3.363281 C 9.800781 3.363281 10 3.5625 10 3.804688 Z M 10 6.195312 "/>
<g clip-path="url(#clip1)" clip-rule="nonzero">
<g clip-path="url(#clip2)" clip-rule="nonzero">
<path style=" stroke:none;fill-rule:nonzero;fill:url(#linear0);" d="M 0.75 3.996094 L 0.75 6.210938 L 1.867188 5.101562 Z M 0.75 3.996094 "/>
</g>
</g>
<g clip-path="url(#clip3)" clip-rule="nonzero">
<g clip-path="url(#clip4)" clip-rule="nonzero">
<path style=" stroke:none;fill-rule:nonzero;fill:url(#linear1);" d="M 2.167969 4.804688 L 1.714844 4.542969 L 0.75 3.984375 L 0.75 3.996094 L 1.867188 5.101562 Z M 2.167969 4.804688 "/>
</g>
</g>
<g clip-path="url(#clip5)" clip-rule="nonzero">
<g clip-path="url(#clip6)" clip-rule="nonzero">
<path style=" stroke:none;fill-rule:nonzero;fill:url(#linear2);" d="M 0.75 6.210938 L 0.75 6.21875 L 1.714844 5.660156 L 2.167969 5.398438 L 1.867188 5.101562 Z M 0.75 6.210938 "/>
</g>
</g>
<g clip-path="url(#clip7)" clip-rule="nonzero">
<g clip-path="url(#clip8)" clip-rule="nonzero">
<path style=" stroke:none;fill-rule:nonzero;fill:url(#linear3);" d="M 2.167969 4.804688 L 1.867188 5.101562 L 2.167969 5.398438 L 2.683594 5.101562 Z M 2.167969 4.804688 "/>
</g>
</g>
<path style=" stroke:none;fill-rule:nonzero;fill:rgb(97.647059%,97.647059%,97.647059%);fill-opacity:1;" d="M 7.78125 5.535156 C 7.742188 5.535156 7.703125 5.527344 7.667969 5.511719 C 7.632812 5.496094 7.605469 5.472656 7.582031 5.441406 L 7.574219 5.441406 C 7.578125 5.476562 7.582031 5.511719 7.582031 5.546875 L 7.582031 5.8125 L 7.484375 5.8125 L 7.484375 4.878906 L 7.5625 4.878906 L 7.574219 4.96875 L 7.582031 4.96875 C 7.605469 4.933594 7.632812 4.90625 7.667969 4.890625 C 7.699219 4.875 7.738281 4.867188 7.78125 4.867188 C 7.867188 4.867188 7.933594 4.894531 7.980469 4.953125 C 8.027344 5.011719 8.050781 5.09375 8.050781 5.199219 C 8.050781 5.304688 8.027344 5.386719 7.980469 5.445312 C 7.933594 5.503906 7.867188 5.535156 7.78125 5.535156 Z M 7.769531 4.949219 C 7.703125 4.949219 7.65625 4.96875 7.625 5.003906 C 7.597656 5.042969 7.582031 5.097656 7.582031 5.179688 L 7.582031 5.199219 C 7.582031 5.289062 7.59375 5.355469 7.625 5.394531 C 7.65625 5.433594 7.703125 5.453125 7.769531 5.453125 C 7.828125 5.453125 7.871094 5.429688 7.902344 5.386719 C 7.933594 5.339844 7.949219 5.277344 7.949219 5.199219 C 7.949219 5.117188 7.933594 5.058594 7.902344 5.015625 C 7.871094 4.972656 7.824219 4.949219 7.769531 4.949219 Z M 8.277344 5.523438 L 8.179688 5.523438 L 8.179688 4.609375 L 8.277344 4.609375 Z M 8.835938 5.523438 L 8.816406 5.429688 L 8.8125 5.429688 C 8.78125 5.472656 8.75 5.5 8.714844 5.511719 C 8.683594 5.527344 8.644531 5.535156 8.597656 5.535156 C 8.53125 5.535156 8.484375 5.519531 8.445312 5.484375 C 8.410156 5.453125 8.390625 5.40625 8.390625 5.34375 C 8.390625 5.214844 8.496094 5.148438 8.703125 5.140625 L 8.8125 5.136719 L 8.8125 5.097656 C 8.8125 5.046875 8.804688 5.007812 8.78125 4.984375 C 8.757812 4.960938 8.726562 4.949219 8.675781 4.949219 C 8.625 4.949219 8.5625 4.964844 8.496094 5 L 8.464844 4.921875 C 8.496094 4.90625 8.53125 4.894531 8.570312 4.882812 C 8.605469 4.875 8.644531 4.867188 8.683594 4.867188 C 8.757812 4.867188 8.816406 4.886719 8.855469 4.917969 C 8.890625 4.953125 8.910156 5.007812 8.910156 5.082031 L 8.910156 5.523438 Z M 8.617188 5.453125 C 8.675781 5.453125 8.726562 5.4375 8.757812 5.40625 C 8.792969 5.371094 8.8125 5.324219 8.8125 5.265625 L 8.8125 5.207031 L 8.714844 5.210938 C 8.636719 5.214844 8.582031 5.226562 8.546875 5.246094 C 8.511719 5.269531 8.496094 5.300781 8.496094 5.347656 C 8.496094 5.382812 8.503906 5.410156 8.527344 5.425781 C 8.546875 5.445312 8.578125 5.453125 8.617188 5.453125 Z M 8.964844 4.878906 L 9.070312 4.878906 L 9.210938 5.246094 C 9.242188 5.332031 9.261719 5.390625 9.269531 5.429688 L 9.273438 5.429688 C 9.277344 5.40625 9.289062 5.375 9.304688 5.324219 C 9.320312 5.277344 9.375 5.128906 9.464844 4.878906 L 9.570312 4.878906 L 9.292969 5.613281 C 9.265625 5.683594 9.234375 5.738281 9.195312 5.765625 C 9.160156 5.796875 9.117188 5.8125 9.0625 5.8125 C 9.03125 5.8125 9.003906 5.808594 8.972656 5.800781 L 8.972656 5.722656 C 8.996094 5.730469 9.019531 5.730469 9.046875 5.730469 C 9.113281 5.730469 9.160156 5.695312 9.191406 5.617188 L 9.226562 5.527344 Z M 5.976562 4.9375 C 6.007812 4.964844 6.070312 5.019531 6.070312 5.121094 C 6.070312 5.21875 6.015625 5.265625 5.957031 5.3125 C 5.941406 5.328125 5.917969 5.347656 5.917969 5.378906 C 5.917969 5.40625 5.941406 5.425781 5.953125 5.4375 L 6.003906 5.472656 C 6.0625 5.523438 6.117188 5.570312 6.117188 5.664062 C 6.117188 5.789062 5.992188 5.917969 5.761719 5.917969 C 5.566406 5.917969 5.472656 5.824219 5.472656 5.722656 C 5.472656 5.675781 5.496094 5.605469 5.574219 5.558594 C 5.660156 5.507812 5.773438 5.503906 5.832031 5.496094 C 5.816406 5.472656 5.792969 5.449219 5.792969 5.40625 C 5.792969 5.382812 5.800781 5.371094 5.804688 5.355469 C 5.792969 5.355469 5.777344 5.355469 5.761719 5.355469 C 5.621094 5.355469 5.539062 5.25 5.539062 5.144531 C 5.539062 5.082031 5.566406 5.015625 5.625 4.964844 C 5.703125 4.902344 5.792969 4.890625 5.867188 4.890625 L 6.144531 4.890625 L 6.058594 4.9375 Z M 5.878906 5.535156 C 5.867188 5.535156 5.863281 5.535156 5.847656 5.535156 C 5.835938 5.535156 5.761719 5.539062 5.707031 5.558594 C 5.675781 5.566406 5.589844 5.601562 5.589844 5.695312 C 5.589844 5.792969 5.683594 5.859375 5.828125 5.859375 C 5.957031 5.859375 6.027344 5.796875 6.027344 5.714844 C 6.027344 5.644531 5.980469 5.609375 5.878906 5.535156 Z M 5.917969 5.28125 C 5.949219 5.25 5.953125 5.207031 5.953125 5.183594 C 5.953125 5.085938 5.894531 4.933594 5.78125 4.933594 C 5.746094 4.933594 5.710938 4.953125 5.6875 4.980469 C 5.664062 5.007812 5.660156 5.042969 5.660156 5.078125 C 5.660156 5.167969 5.710938 5.320312 5.828125 5.320312 C 5.859375 5.320312 5.898438 5.300781 5.917969 5.28125 Z M 5.125 5.515625 C 4.914062 5.515625 4.796875 5.347656 4.796875 5.199219 C 4.796875 5.023438 4.941406 4.871094 5.148438 4.871094 C 5.34375 4.871094 5.46875 5.027344 5.46875 5.1875 C 5.46875 5.347656 5.347656 5.515625 5.125 5.515625 Z M 5.292969 5.40625 C 5.328125 5.363281 5.335938 5.308594 5.335938 5.257812 C 5.335938 5.140625 5.277344 4.914062 5.113281 4.914062 C 5.066406 4.914062 5.023438 4.929688 4.992188 4.957031 C 4.9375 5.003906 4.929688 5.066406 4.929688 5.121094 C 4.929688 5.253906 4.996094 5.476562 5.15625 5.476562 C 5.210938 5.476562 5.265625 5.449219 5.292969 5.40625 Z M 4.398438 5.515625 C 4.183594 5.515625 4.070312 5.347656 4.070312 5.199219 C 4.070312 5.023438 4.214844 4.871094 4.417969 4.871094 C 4.617188 4.871094 4.738281 5.027344 4.738281 5.1875 C 4.738281 5.347656 4.617188 5.515625 4.398438 5.515625 Z M 4.566406 5.40625 C 4.597656 5.363281 4.605469 5.308594 4.605469 5.257812 C 4.605469 5.140625 4.550781 4.914062 4.382812 4.914062 C 4.339844 4.914062 4.292969 4.929688 4.261719 4.957031 C 4.210938 5.003906 4.199219 5.066406 4.199219 5.121094 C 4.199219 5.253906 4.265625 5.476562 4.429688 5.476562 C 4.480469 5.476562 4.535156 5.449219 4.566406 5.40625 Z M 3.964844 5.496094 L 3.773438 5.539062 C 3.695312 5.550781 3.625 5.5625 3.550781 5.5625 C 3.175781 5.5625 3.035156 5.289062 3.035156 5.074219 C 3.035156 4.808594 3.234375 4.566406 3.582031 4.566406 C 3.652344 4.566406 3.722656 4.578125 3.789062 4.59375 C 3.890625 4.625 3.9375 4.660156 3.964844 4.679688 L 3.855469 4.785156 L 3.808594 4.796875 L 3.839844 4.742188 C 3.792969 4.699219 3.710938 4.613281 3.550781 4.613281 C 3.335938 4.613281 3.175781 4.777344 3.175781 5.015625 C 3.175781 5.269531 3.359375 5.507812 3.65625 5.507812 C 3.742188 5.507812 3.785156 5.492188 3.828125 5.472656 L 3.828125 5.257812 L 3.621094 5.265625 L 3.730469 5.207031 L 4.019531 5.207031 L 3.984375 5.242188 C 3.972656 5.25 3.972656 5.253906 3.96875 5.265625 C 3.96875 5.277344 3.964844 5.316406 3.964844 5.328125 Z M 3.964844 5.496094 "/>
<path style=" stroke:none;fill-rule:nonzero;fill:rgb(97.647059%,97.647059%,97.647059%);fill-opacity:1;" d="M 6.402344 5.457031 C 6.359375 5.453125 6.347656 5.441406 6.347656 5.390625 L 6.347656 4.625 C 6.347656 4.621094 6.347656 4.617188 6.347656 4.617188 C 6.355469 4.570312 6.367188 4.5625 6.410156 4.535156 L 6.214844 4.535156 L 6.113281 4.585938 L 6.21875 4.585938 L 6.21875 5.421875 C 6.21875 5.445312 6.214844 5.453125 6.183594 5.492188 L 6.421875 5.492188 L 6.472656 5.460938 C 6.449219 5.460938 6.425781 5.457031 6.402344 5.457031 Z M 6.953125 5.46875 C 6.9375 5.476562 6.921875 5.484375 6.910156 5.492188 C 6.863281 5.511719 6.820312 5.515625 6.777344 5.515625 C 6.734375 5.515625 6.667969 5.515625 6.597656 5.464844 C 6.503906 5.398438 6.460938 5.28125 6.460938 5.183594 C 6.460938 4.972656 6.632812 4.871094 6.769531 4.871094 C 6.820312 4.871094 6.867188 4.882812 6.910156 4.910156 C 6.976562 4.953125 6.992188 5.011719 7.003906 5.042969 L 6.6875 5.167969 L 6.582031 5.175781 C 6.617188 5.347656 6.734375 5.449219 6.859375 5.449219 C 6.929688 5.449219 6.976562 5.421875 7.023438 5.402344 Z M 6.828125 5.066406 C 6.851562 5.058594 6.867188 5.050781 6.867188 5.03125 C 6.867188 4.976562 6.804688 4.914062 6.734375 4.914062 C 6.679688 4.914062 6.578125 4.957031 6.578125 5.101562 C 6.578125 5.125 6.582031 5.148438 6.582031 5.171875 Z M 7.082031 4.878906 L 7.082031 4.96875 L 7.070312 4.96875 L 7.070312 4.878906 L 7.042969 4.878906 L 7.042969 4.871094 L 7.113281 4.871094 L 7.113281 4.878906 Z M 7.203125 4.96875 L 7.203125 4.878906 L 7.175781 4.96875 L 7.167969 4.96875 L 7.140625 4.878906 L 7.140625 4.96875 L 7.128906 4.96875 L 7.128906 4.871094 L 7.144531 4.871094 L 7.171875 4.949219 L 7.195312 4.871094 L 7.214844 4.871094 L 7.214844 4.96875 Z M 7.203125 4.96875 "/>
<path style=" stroke:none;fill-rule:nonzero;fill:rgb(97.647059%,97.647059%,98.039216%);fill-opacity:1;" d="M 3.304688 4.304688 L 3.234375 4.304688 C 3.234375 4.292969 3.230469 4.269531 3.21875 4.226562 L 3.121094 4.226562 C 3.105469 4.265625 3.101562 4.292969 3.101562 4.304688 L 3.035156 4.304688 C 3.035156 4.296875 3.054688 4.253906 3.085938 4.167969 C 3.117188 4.085938 3.136719 4.039062 3.136719 4.03125 L 3.214844 4.03125 C 3.214844 4.039062 3.230469 4.082031 3.257812 4.167969 C 3.289062 4.25 3.304688 4.296875 3.304688 4.304688 Z M 3.207031 4.183594 C 3.183594 4.113281 3.171875 4.074219 3.171875 4.066406 L 3.167969 4.066406 C 3.167969 4.074219 3.15625 4.113281 3.128906 4.183594 Z M 3.574219 4.304688 L 3.523438 4.304688 C 3.523438 4.296875 3.503906 4.265625 3.464844 4.210938 C 3.425781 4.15625 3.402344 4.113281 3.394531 4.09375 L 3.390625 4.09375 C 3.394531 4.125 3.398438 4.152344 3.398438 4.175781 C 3.398438 4.210938 3.398438 4.253906 3.398438 4.304688 L 3.347656 4.304688 C 3.351562 4.261719 3.351562 4.210938 3.351562 4.160156 C 3.351562 4.109375 3.351562 4.066406 3.347656 4.03125 L 3.410156 4.03125 C 3.410156 4.039062 3.429688 4.066406 3.464844 4.117188 C 3.5 4.171875 3.519531 4.210938 3.527344 4.230469 L 3.53125 4.230469 C 3.527344 4.199219 3.523438 4.171875 3.523438 4.148438 C 3.523438 4.109375 3.523438 4.070312 3.523438 4.03125 L 3.574219 4.03125 C 3.570312 4.066406 3.570312 4.109375 3.570312 4.160156 C 3.570312 4.210938 3.570312 4.261719 3.574219 4.304688 Z M 3.878906 4.15625 C 3.878906 4.195312 3.867188 4.230469 3.839844 4.261719 C 3.816406 4.289062 3.777344 4.304688 3.734375 4.304688 C 3.710938 4.304688 3.683594 4.304688 3.648438 4.304688 C 3.648438 4.261719 3.648438 4.214844 3.648438 4.160156 C 3.648438 4.109375 3.648438 4.066406 3.648438 4.03125 L 3.683594 4.03125 C 3.691406 4.03125 3.699219 4.03125 3.710938 4.027344 C 3.722656 4.027344 3.730469 4.027344 3.734375 4.027344 C 3.785156 4.027344 3.820312 4.042969 3.84375 4.066406 C 3.867188 4.089844 3.878906 4.121094 3.878906 4.15625 Z M 3.820312 4.167969 C 3.820312 4.140625 3.8125 4.117188 3.796875 4.097656 C 3.78125 4.078125 3.757812 4.070312 3.726562 4.070312 C 3.71875 4.070312 3.710938 4.070312 3.699219 4.074219 C 3.703125 4.101562 3.703125 4.128906 3.703125 4.160156 C 3.703125 4.195312 3.703125 4.226562 3.707031 4.257812 C 3.714844 4.261719 3.722656 4.261719 3.734375 4.261719 C 3.761719 4.261719 3.785156 4.253906 3.800781 4.234375 C 3.8125 4.214844 3.820312 4.191406 3.820312 4.167969 Z M 4.160156 4.304688 L 4.097656 4.304688 C 4.082031 4.253906 4.066406 4.222656 4.058594 4.210938 C 4.050781 4.199219 4.035156 4.195312 4.019531 4.195312 C 4.007812 4.195312 4 4.195312 3.996094 4.195312 C 3.996094 4.230469 3.996094 4.265625 3.996094 4.304688 L 3.9375 4.304688 C 3.941406 4.261719 3.941406 4.214844 3.941406 4.160156 C 3.941406 4.109375 3.941406 4.066406 3.9375 4.03125 L 3.972656 4.03125 C 3.976562 4.03125 3.988281 4.03125 4 4.027344 C 4.015625 4.027344 4.027344 4.027344 4.039062 4.027344 C 4.101562 4.027344 4.132812 4.050781 4.132812 4.09375 C 4.132812 4.128906 4.117188 4.152344 4.078125 4.167969 L 4.078125 4.171875 C 4.09375 4.175781 4.105469 4.183594 4.117188 4.203125 C 4.125 4.222656 4.140625 4.253906 4.160156 4.304688 Z M 4.082031 4.109375 C 4.082031 4.082031 4.0625 4.066406 4.027344 4.066406 C 4.011719 4.066406 4 4.070312 3.992188 4.070312 C 3.992188 4.09375 3.992188 4.121094 3.992188 4.15625 C 4 4.15625 4.007812 4.15625 4.011719 4.15625 C 4.058594 4.15625 4.082031 4.140625 4.082031 4.109375 Z M 4.460938 4.160156 C 4.460938 4.203125 4.445312 4.238281 4.421875 4.269531 C 4.394531 4.296875 4.363281 4.3125 4.324219 4.3125 C 4.285156 4.3125 4.253906 4.296875 4.230469 4.273438 C 4.207031 4.246094 4.191406 4.210938 4.191406 4.171875 C 4.191406 4.128906 4.207031 4.09375 4.230469 4.066406 C 4.257812 4.039062 4.292969 4.023438 4.328125 4.023438 C 4.367188 4.023438 4.398438 4.035156 4.421875 4.0625 C 4.449219 4.089844 4.460938 4.121094 4.460938 4.160156 Z M 4.402344 4.167969 C 4.402344 4.136719 4.394531 4.113281 4.378906 4.097656 C 4.363281 4.078125 4.347656 4.070312 4.324219 4.070312 C 4.304688 4.070312 4.285156 4.078125 4.273438 4.097656 C 4.257812 4.113281 4.25 4.136719 4.25 4.167969 C 4.25 4.195312 4.257812 4.21875 4.273438 4.238281 C 4.289062 4.253906 4.308594 4.265625 4.328125 4.265625 C 4.347656 4.265625 4.367188 4.253906 4.378906 4.238281 C 4.394531 4.21875 4.402344 4.195312 4.402344 4.167969 Z M 4.578125 4.304688 L 4.519531 4.304688 C 4.519531 4.261719 4.523438 4.210938 4.523438 4.160156 C 4.523438 4.109375 4.519531 4.066406 4.519531 4.03125 L 4.578125 4.03125 C 4.578125 4.066406 4.578125 4.109375 4.578125 4.160156 C 4.578125 4.214844 4.578125 4.261719 4.578125 4.304688 Z M 4.882812 4.15625 C 4.882812 4.195312 4.871094 4.230469 4.84375 4.261719 C 4.820312 4.289062 4.785156 4.304688 4.738281 4.304688 C 4.71875 4.304688 4.6875 4.304688 4.652344 4.304688 C 4.652344 4.261719 4.65625 4.214844 4.65625 4.160156 C 4.65625 4.109375 4.652344 4.066406 4.652344 4.03125 L 4.6875 4.03125 C 4.695312 4.03125 4.703125 4.03125 4.714844 4.027344 C 4.726562 4.027344 4.734375 4.027344 4.738281 4.027344 C 4.789062 4.027344 4.828125 4.042969 4.847656 4.066406 C 4.871094 4.089844 4.882812 4.121094 4.882812 4.15625 Z M 4.824219 4.167969 C 4.824219 4.140625 4.816406 4.117188 4.800781 4.097656 C 4.785156 4.078125 4.761719 4.070312 4.730469 4.070312 C 4.726562 4.070312 4.714844 4.070312 4.707031 4.074219 C 4.707031 4.101562 4.707031 4.128906 4.707031 4.160156 C 4.707031 4.195312 4.707031 4.226562 4.710938 4.257812 C 4.71875 4.261719 4.726562 4.261719 4.738281 4.261719 C 4.765625 4.261719 4.789062 4.253906 4.804688 4.234375 C 4.820312 4.214844 4.824219 4.191406 4.824219 4.167969 Z M 5.289062 4.304688 L 5.21875 4.304688 C 5.21875 4.292969 5.214844 4.269531 5.199219 4.226562 L 5.105469 4.226562 C 5.089844 4.265625 5.085938 4.292969 5.085938 4.304688 L 5.019531 4.304688 C 5.019531 4.296875 5.039062 4.253906 5.070312 4.167969 C 5.101562 4.085938 5.117188 4.039062 5.117188 4.03125 L 5.199219 4.03125 C 5.199219 4.039062 5.214844 4.082031 5.242188 4.167969 C 5.273438 4.25 5.289062 4.296875 5.289062 4.304688 Z M 5.191406 4.183594 C 5.167969 4.113281 5.152344 4.074219 5.152344 4.066406 C 5.152344 4.074219 5.136719 4.113281 5.113281 4.183594 Z M 5.53125 4.101562 C 5.53125 4.136719 5.519531 4.160156 5.496094 4.175781 C 5.46875 4.191406 5.441406 4.199219 5.402344 4.199219 C 5.398438 4.199219 5.390625 4.199219 5.390625 4.199219 C 5.390625 4.226562 5.390625 4.261719 5.390625 4.304688 L 5.332031 4.304688 C 5.335938 4.261719 5.335938 4.214844 5.335938 4.160156 C 5.335938 4.109375 5.335938 4.066406 5.332031 4.03125 L 5.371094 4.03125 C 5.375 4.03125 5.382812 4.03125 5.398438 4.027344 C 5.414062 4.027344 5.425781 4.027344 5.4375 4.027344 C 5.464844 4.027344 5.484375 4.035156 5.503906 4.046875 C 5.523438 4.058594 5.53125 4.078125 5.53125 4.101562 Z M 5.476562 4.113281 C 5.476562 4.082031 5.457031 4.066406 5.417969 4.066406 C 5.410156 4.066406 5.398438 4.070312 5.386719 4.070312 C 5.386719 4.097656 5.390625 4.128906 5.390625 4.160156 C 5.394531 4.160156 5.398438 4.160156 5.402344 4.160156 C 5.453125 4.160156 5.476562 4.144531 5.476562 4.113281 Z M 5.785156 4.101562 C 5.785156 4.136719 5.773438 4.160156 5.746094 4.175781 C 5.722656 4.191406 5.691406 4.199219 5.65625 4.199219 C 5.648438 4.199219 5.644531 4.199219 5.640625 4.199219 C 5.640625 4.226562 5.640625 4.261719 5.644531 4.304688 L 5.585938 4.304688 C 5.585938 4.261719 5.585938 4.214844 5.585938 4.160156 C 5.585938 4.109375 5.585938 4.066406 5.585938 4.03125 L 5.621094 4.03125 C 5.625 4.03125 5.636719 4.03125 5.652344 4.027344 C 5.664062 4.027344 5.679688 4.027344 5.6875 4.027344 C 5.714844 4.027344 5.738281 4.035156 5.757812 4.046875 C 5.773438 4.058594 5.785156 4.078125 5.785156 4.101562 Z M 5.730469 4.113281 C 5.730469 4.082031 5.710938 4.066406 5.671875 4.066406 C 5.660156 4.066406 5.648438 4.070312 5.640625 4.070312 C 5.640625 4.097656 5.640625 4.128906 5.640625 4.160156 C 5.644531 4.160156 5.648438 4.160156 5.652344 4.160156 C 5.703125 4.160156 5.730469 4.144531 5.730469 4.113281 Z M 6.195312 4.160156 C 6.195312 4.203125 6.183594 4.238281 6.15625 4.269531 C 6.128906 4.296875 6.097656 4.3125 6.058594 4.3125 C 6.023438 4.3125 5.992188 4.296875 5.964844 4.273438 C 5.941406 4.246094 5.929688 4.210938 5.929688 4.171875 C 5.929688 4.128906 5.941406 4.09375 5.96875 4.066406 C 5.996094 4.039062 6.027344 4.023438 6.066406 4.023438 C 6.101562 4.023438 6.132812 4.035156 6.160156 4.0625 C 6.183594 4.089844 6.195312 4.121094 6.195312 4.160156 Z M 6.136719 4.167969 C 6.136719 4.136719 6.128906 4.113281 6.117188 4.097656 C 6.101562 4.078125 6.082031 4.070312 6.058594 4.070312 C 6.039062 4.070312 6.023438 4.078125 6.007812 4.097656 C 5.992188 4.113281 5.988281 4.136719 5.988281 4.167969 C 5.988281 4.195312 5.992188 4.21875 6.007812 4.238281 C 6.023438 4.253906 6.042969 4.265625 6.0625 4.265625 C 6.085938 4.265625 6.101562 4.253906 6.117188 4.238281 C 6.128906 4.21875 6.136719 4.195312 6.136719 4.167969 Z M 6.480469 4.304688 L 6.429688 4.304688 C 6.429688 4.296875 6.410156 4.265625 6.371094 4.210938 C 6.332031 4.15625 6.308594 4.113281 6.300781 4.09375 L 6.296875 4.09375 C 6.300781 4.125 6.304688 4.152344 6.304688 4.175781 C 6.304688 4.210938 6.304688 4.253906 6.308594 4.304688 L 6.253906 4.304688 C 6.257812 4.261719 6.257812 4.210938 6.257812 4.160156 C 6.257812 4.109375 6.257812 4.066406 6.253906 4.03125 L 6.316406 4.03125 C 6.316406 4.039062 6.335938 4.066406 6.371094 4.117188 C 6.40625 4.171875 6.425781 4.210938 6.433594 4.230469 L 6.4375 4.230469 C 6.433594 4.199219 6.429688 4.171875 6.429688 4.148438 C 6.429688 4.109375 6.429688 4.070312 6.429688 4.03125 L 6.480469 4.03125 C 6.480469 4.066406 6.476562 4.109375 6.476562 4.160156 C 6.476562 4.210938 6.480469 4.261719 6.480469 4.304688 Z M 6.480469 4.304688 "/>
</g>
</svg>
